<?xml version="1.0" encoding="UTF-8" standalone="no"?>
<svg
   xmlns:dc="http://purl.org/dc/elements/1.1/"
   xmlns:cc="http://creativecommons.org/ns#"
   xmlns:rdf="http://www.w3.org/1999/02/22-rdf-syntax-ns#"
   xmlns:svg="http://www.w3.org/2000/svg"
   xmlns="http://www.w3.org/2000/svg"
   xmlns:sodipodi="http://sodipodi.sourceforge.net/DTD/sodipodi-0.dtd"
   xmlns:inkscape="http://www.inkscape.org/namespaces/inkscape"
   version="1.0"
   width="240pt"
   height="135pt"
   viewBox="0 0 240 135"
   preserveAspectRatio="xMidYMid meet"
   id="svg18"
   sodipodi:docname="banner.svg"
   inkscape:version="0.92.4 (5da689c313, 2019-01-14)">
  <defs
     id="defs22">
    <inkscape:path-effect
       effect="skeletal"
       id="path-effect4796"
       is_visible="true"
       pattern="M 0,5 C 0,2.24 2.24,0 5,0 7.76,0 10,2.24 10,5 10,7.76 7.76,10 5,10 2.24,10 0,7.76 0,5 Z"
       copytype="single_stretched"
       prop_scale="0.75"
       scale_y_rel="false"
       spacing="0"
       normal_offset="0"
       tang_offset="0"
       prop_units="false"
       vertical_pattern="false"
       fuse_tolerance="0" />
    <inkscape:path-effect
       effect="skeletal"
       id="path-effect4792"
       is_visible="true"
       pattern="M 0,5 C 0,2.24 2.24,0 5,0 7.76,0 10,2.24 10,5 10,7.76 7.76,10 5,10 2.24,10 0,7.76 0,5 Z"
       copytype="single_stretched"
       prop_scale="0.75"
       scale_y_rel="false"
       spacing="0"
       normal_offset="0"
       tang_offset="0"
       prop_units="false"
       vertical_pattern="false"
       fuse_tolerance="0" />
    <inkscape:path-effect
       effect="skeletal"
       id="path-effect4788"
       is_visible="true"
       pattern="M 0,5 C 0,2.24 2.24,0 5,0 7.76,0 10,2.24 10,5 10,7.76 7.76,10 5,10 2.24,10 0,7.76 0,5 Z"
       copytype="single_stretched"
       prop_scale="0.75"
       scale_y_rel="false"
       spacing="0"
       normal_offset="0"
       tang_offset="0"
       prop_units="false"
       vertical_pattern="false"
       fuse_tolerance="0" />
    <inkscape:path-effect
       effect="skeletal"
       id="path-effect4784"
       is_visible="true"
       pattern="M 0,5 C 0,2.24 2.24,0 5,0 7.76,0 10,2.24 10,5 10,7.76 7.76,10 5,10 2.24,10 0,7.76 0,5 Z"
       copytype="single_stretched"
       prop_scale="0.75"
       scale_y_rel="false"
       spacing="0"
       normal_offset="0"
       tang_offset="0"
       prop_units="false"
       vertical_pattern="false"
       fuse_tolerance="0" />
    <inkscape:path-effect
       effect="skeletal"
       id="path-effect4780"
       is_visible="true"
       pattern="M 0,5 C 0,2.24 2.24,0 5,0 7.76,0 10,2.24 10,5 10,7.76 7.76,10 5,10 2.24,10 0,7.76 0,5 Z"
       copytype="single_stretched"
       prop_scale="0.75"
       scale_y_rel="false"
       spacing="0"
       normal_offset="0"
       tang_offset="0"
       prop_units="false"
       vertical_pattern="false"
       fuse_tolerance="0" />
  </defs>
  <sodipodi:namedview
     pagecolor="#ffffff"
     bordercolor="#666666"
     borderopacity="1"
     objecttolerance="10"
     gridtolerance="10"
     guidetolerance="10"
     inkscape:pageopacity="0"
     inkscape:pageshadow="2"
     inkscape:window-width="1303"
     inkscape:window-height="745"
     id="namedview20"
     showgrid="false"
     inkscape:zoom="1.0114286"
     inkscape:cx="-34.788117"
     inkscape:cy="13.942742"
     inkscape:window-x="55"
     inkscape:window-y="-8"
     inkscape:window-maximized="1"
     inkscape:current-layer="layer6" />
  <metadata
     id="metadata2">
Created by potrace 1.15, written by Peter Selinger 2001-2017
<rdf:RDF>
  <cc:Work
     rdf:about="">
    <dc:format>image/svg+xml</dc:format>
    <dc:type
       rdf:resource="http://purl.org/dc/dcmitype/StillImage" />
    <dc:title />
  </cc:Work>
</rdf:RDF>
</metadata>
  <g
     inkscape:groupmode="layer"
     id="layer6"
     inkscape:label="Layer 5"
     transform="translate(-71.927979,-62.288128)">
    <rect
       style="opacity:1;fill-opacity:1;stroke:none;stroke-width:0.75;stroke-opacity:1;fill:#005588"
       id="rect4713"
       width="240"
       height="135"
       x="71.927979"
       y="62.288128" />
    <g
       id="g953"
       transform="matrix(0.71986728,0,0,0.72864383,85.629113,13.27535)">
      <path
         transform="translate(0,-9)"
         inkscape:original-d="m 125.31781,149.8305 c 3.21433,1.01539 0.26607,3.0228 0.74152,4.44916 0.17478,0.52433 0.63314,0.94108 0.74153,1.48305 0.29085,1.45425 -0.29085,2.9949 0,4.44915 0.21679,1.08393 1.13349,1.91742 1.48305,2.9661 0.0782,0.23449 -0.0782,0.50703 0,0.74152 0.17478,0.52434 0.56675,0.95872 0.74153,1.48306 0.15632,0.46897 0,0.98869 0,1.48305 0,0.98869 0,1.9774 0,2.9661 0,2.9661 0,5.9322 0,8.89831 0,1.73022 0,3.46044 0,5.19067 0,0.49435 0.27421,1.07173 0,1.48305 -0.30659,0.45988 -1.02318,0.43494 -1.48305,0.74153 -0.29085,0.1939 -0.54763,0.45067 -0.74153,0.74152 -0.30658,0.45988 -0.43494,1.02318 -0.74153,1.48305 -0.1939,0.29085 -0.58519,0.42887 -0.74152,0.74153 -0.11054,0.22108 0.17478,0.56675 0,0.74152 -0.17478,0.17478 -0.56675,-0.17477 -0.74153,0 -0.17478,0.17478 0.13711,0.53587 0,0.74153 -0.36561,0.54842 -2.6611,2.35611 -2.9661,2.9661 -0.11054,0.22108 0.11054,0.52044 0,0.74153 -0.15632,0.31265 -0.49435,0.49435 -0.74152,0.74152 -0.24718,0.24718 -0.42887,0.5852 -0.74153,0.74153 -0.22108,0.11054 -0.49435,0 -0.74152,0 -0.24718,0 -0.74153,0.24718 -0.74153,0 0,-0.24718 0.49435,0 0.74153,0"
         inkscape:path-effect="#path-effect4780"
         inkscape:connector-curvature="0"
         id="path4778"
         d="m 125.31781,149.8305 c 0.0107,-0.0339 0.96211,-1.38717 2.57092,0.31888 0,0 0,0 0,0 0.42042,0.72242 0.62221,1.61389 0.42026,2.29616 -0.0914,0.58452 -0.23682,1.09973 -0.24756,1.41487 0.0795,0.29698 0.0654,0.28169 0.12507,-0.28981 -0.0233,-0.15651 0.42685,-0.0506 1.08522,1.69795 0.5302,2.16245 0.15968,4.09021 0.53281,4.34257 0,0 0,0 0,0 -0.15903,-0.20061 0.71818,0.25558 1.64828,2.51029 0.35743,2.35799 0.2157,2.62242 0.0482,0.72547 0,0 0,-2e-5 0,-2e-5 -0.21132,-0.45364 0.26877,0.0971 0.83543,1.45203 0.27478,1.42198 0.40182,3.331 0.2531,2.5867 0.0435,0.96611 0.0798,1.95594 0.10848,2.9661 0.0508,1.79002 0.0774,3.64391 0.0774,5.54287 0,1.13595 -0.01,2.25577 -0.0281,3.35544 -0.0302,1.78935 -0.0841,3.52535 -0.15951,5.19067 0,0 0,0 0,0 0.18296,-0.68097 0.29978,0.3324 -0.66122,3.41718 -2.3868,2.02712 -3.50272,2.34008 -2.50627,1.62431 0.0706,-0.0754 0.10825,-0.15025 0.13654,-0.23805 0.0644,-0.28473 -0.13342,0.31263 -0.85134,1.40989 -0.82286,0.99782 -1.87462,1.84524 -0.62873,0.35686 0.28503,-1.58695 0.39165,-2.14139 0.21141,-1.76462 0,0 1e-5,0 1e-5,0 0.45031,0.11359 0.19082,1.25099 -0.84297,3.25416 -2.36366,1.06025 -3.48475,1.22127 -3.37289,0.70876 -0.35468,0.41581 0.50504,0.0886 2.57279,-0.76733 0.8374,-1.94304 1.09547,-2.71557 0.69163,-2.49462 0,0 0,0 0,0 0.30754,-0.0963 0.20608,0.86947 -0.3996,2.74116 -0.51615,0.63976 -0.88421,0.94534 -1.05942,1.02316 -0.3894,0.29062 -0.75999,0.54207 -1.08707,0.75883 -0.36476,0.24548 -0.68806,0.44934 -0.97003,0.63618 -0.27485,0.27641 -0.35596,0.19573 -0.23278,-0.0372 0.18448,-1.83176 0.32211,-1.30201 -0.13512,0.67392 -0.80222,1.03356 -1.24063,1.20244 -1.29639,1.10799 0,0 0,0 0,0 -0.0134,-0.0623 -0.53907,0.4042 -1.34412,0.82409 -1.28245,0.23641 -1.52924,0.0242 -1.42667,-0.0934 0.18238,-0.10082 0.0368,-0.10375 -0.25151,-0.12452 -0.30175,0.36314 -0.91734,-0.24033 -1.4013,-1.15241 0.74066,-1.13302 1.16969,-1.04836 1.32633,-0.77758 0,0 0,0 0,0 0.26976,0.18729 0.32648,0.67243 0.32648,0.77758 0,0.23866 -0.43027,0.40906 -0.60044,0.59219 0,0 0,0 0,0 -0.0264,0.26601 0.0491,0.2638 0.77019,-0.59219 -0.49333,-0.72147 -0.79249,-1.25837 -0.84515,-0.96703 -1e-5,-0.0732 0.14885,-0.20596 0.6754,-0.3099 0.62785,-0.14814 0.77764,-0.0852 0.0564,-0.0934 -0.18807,0.10834 -0.41233,-0.0283 0.13894,-0.65897 0,0 0,0 0,0 0.42453,-0.59682 0.62716,-0.71966 0.18665,-0.37505 -0.30386,1.96724 -0.47624,1.06082 -0.13512,-0.80914 0.37239,-0.73084 0.70399,-1.1814 0.84864,-1.3245 0.29382,-0.39068 0.58145,-0.74057 0.86919,-1.08876 0.26502,-0.31945 0.5429,-0.6485 0.77489,-0.94301 0.22411,-0.30076 0.28868,-0.35981 0.0902,-0.19492 -0.46146,1.65669 -0.66132,2.32639 -0.42785,1.97647 0,0 0,0 0,0 -0.47037,-0.0199 -0.29734,-1.08953 0.71988,-3.21299 2.24833,-1.03755 3.42,-1.26224 3.31432,-0.76733 0.35946,-0.43828 -0.4544,-0.16576 -2.63136,0.70876 -0.85997,1.82969 -1.18072,2.67493 -0.79479,2.54737 0,0 1e-5,0 1e-5,0 -0.24591,0.12037 -0.24149,-0.71335 0.16323,-2.54087 1.17154,-1.64932 1.66078,-1.98997 0.85431,-1.1262 -0.0228,0.0382 -0.15121,-0.16891 0.63172,-1.55621 0.4137,-0.6659 0.95611,-1.25037 1.6196,-1.72109 1.98573,-1.37465 2.13107,-0.90261 0.45983,0.14125 -0.34462,2.00234 -0.89589,2.41231 -0.66122,0.45109 0,0 0,-10e-6 0,-10e-6 -0.0754,-1.66532 -0.12935,-3.40132 -0.15951,-5.19067 -0.0185,-1.09967 -0.0281,-2.21949 -0.0281,-3.35544 0,-1.89896 0.0267,-3.75285 0.0774,-5.54287 0.0286,-1.01016 0.065,-1.99999 0.10848,-2.9661 -0.0581,-1.43151 0.20458,-1.19214 0.2531,-0.3794 0.24931,0.37922 -0.13502,-0.11996 -0.64763,-1.51409 0,0 0,-2e-5 0,-2e-5 -0.32118,-2.34338 -0.1542,-2.67782 0.0482,-0.75757 0.19538,0.0506 -0.74378,-1.14631 -1.31782,-3.42191 0,0 0,0 0,0 -0.2663,-2.9448 0.52795,-4.09147 0.53281,-4.55573 0.39841,0.51852 -0.0299,-0.0281 -0.39784,-1.26815 -0.2012,-1.37221 0.0517,-2.19328 0.39621,-2.59809 0.32715,-0.55515 0.64146,-0.87077 0.79394,-1.03424 0.0928,-0.17671 0.34229,-0.0964 0.43468,0.001 0,0 0,0 0,0 0.648,-0.20384 -0.37831,-1.08662 -0.23918,-1.52705 z"
         style="fill:#000000;stroke:none;stroke-width:0.75px;stroke-linecap:butt;stroke-linejoin:miter;stroke-opacity:1" />
      <path
         transform="translate(0,-9)"
         inkscape:original-d="m 128.06143,153.86041 c 0.4707,2.07862 2.81368,1.52739 3.93011,2.64382 0.39082,0.39082 0.43494,1.02317 0.74152,1.48305 0.1939,0.29085 0.54763,0.45068 0.74153,0.74153 0.30658,0.45987 0.35071,1.09223 0.74152,1.48305 0.17478,0.17478 0.56675,-0.17478 0.74153,0 0.17478,0.17478 -0.11054,0.52044 0,0.74152 0.15633,0.31265 0.49435,0.49436 0.74153,0.74153 0.24717,0.24717 0.45067,0.54762 0.74152,0.74152 0.45988,0.30659 1.09223,0.35071 1.48305,0.74153 0.39082,0.39081 0.35071,1.09223 0.74153,1.48305 0.39082,0.39082 1.02317,0.43494 1.48305,0.74153 0.29085,0.1939 0.45067,0.54762 0.74152,0.74152 0.45988,0.30658 1.17647,0.28165 1.48305,0.74153 0.27422,0.41132 -0.34955,1.13349 0,1.48305 0.34956,0.34956 1.0409,-0.22109 1.48306,0 0.22108,0.11053 -0.17478,0.56674 0,0.74152 0.17477,0.17478 0.56674,-0.17478 0.74152,0 0.17478,0.17478 -0.17478,0.56675 0,0.74153 0.39082,0.39082 0.95871,0.56674 1.48305,0.74152 0.23449,0.0782 0.56675,-0.17478 0.74153,0 0.39082,0.39082 0.28165,1.17647 0.74152,1.48305 2.9661,0 0.86511,-0.49434 1.48305,0.74153 0.81978,1.63955 0.46023,0.23011 1.48305,0.74152 1.23624,0.61812 0.33505,1.48305 2.22458,1.48305 0.24718,0 0.60442,0.20567 0.74152,0 0.43358,-0.65035 0.33938,-1.55433 0.74153,-2.22457 0.35969,-0.59949 1.06358,-0.92376 1.48305,-1.48305 1.6337,-0.37343 0.39197,-1.52546 0.74152,-2.22458 0.15633,-0.31265 0.58521,-0.42887 0.74154,-0.74152 0.11053,-0.22109 -0.0782,-0.50704 0,-0.74153 0.17477,-0.52434 0.60747,-0.94685 0.74152,-1.48305 0.1199,-0.47959 -0.15633,-1.01407 0,-1.48305 0.11054,-0.33162 0.5852,-0.42887 0.74153,-0.74153 0.23692,-0.47385 -0.19896,-2.36924 0,-2.9661 0.24717,-0.49435 0.49434,-0.9887 0.74152,-1.48305 0.24717,0 0.56675,0.17478 0.74153,0 0.17478,-0.17478 -0.17478,-0.56674 0,-0.74152 0.17478,-0.17478 0.56674,0.17478 0.74152,0 0.17478,-0.17478 -0.11054,-0.52045 0,-0.74153 0.31265,-0.62531 1.1704,-0.85774 1.48305,-1.48305 0.11054,-0.22108 -0.11054,-0.52045 0,-0.74152 0.15633,-0.31266 0.5852,-0.42888 0.74153,-0.74153 0.22107,-0.44216 -0.34956,-1.1335 0,-1.48305 0.17478,-0.17478 0.52044,0.11054 0.74152,0 0.62531,-0.31266 0.85775,-1.1704 1.48305,-1.48305 0.29401,-0.14701 2.07299,0.15159 2.22458,0 0.17478,-0.17478 -0.17478,-0.56675 0,-0.74153 0.17478,-0.17477 0.49435,0 0.74152,0 0,-0.24717 -0.17478,-0.56675 0,-0.74153 0.17844,-0.17843 2.78767,0.17844 2.96611,0 0.17477,-0.17477 -0.17478,-0.56674 0,-0.74152 0.0742,-0.0742 2.15042,-0.0742 2.22457,0 0.17478,0.17478 0,0.49435 0,0.74152 0,0.49436 0,0.98871 0,1.48306 0,2.22458 0,4.44915 0,6.67373 0,3.70762 0,7.41525 0,11.12288 0,0.63262 0.13776,4.91516 0,5.19067 -1.69683,3.39368 0.30735,-3.1466 -1.48305,2.22458 -0.18808,0.56425 0.11327,2.39976 0,2.96611 -0.15329,0.76645 -0.55195,1.46627 -0.74152,2.22457 -0.0599,0.2398 0.0599,0.50173 0,0.74153 -0.18958,0.75829 -0.45124,1.49884 -0.74153,2.22457 -0.20526,0.51317 -0.60747,0.94685 -0.74153,1.48305 -0.11989,0.4796 0.097,0.9983 0,1.48305 -0.15328,0.76646 -0.58823,1.45812 -0.74152,2.22458 -0.097,0.48475 0.15633,1.01407 0,1.48305 -0.11054,0.33162 -0.5852,0.42887 -0.74153,0.74153 -0.10996,0.21992 0,3.73192 0,4.44915"
         inkscape:path-effect="#path-effect4784"
         inkscape:connector-curvature="0"
         id="path4782"
         d="m 128.06143,153.86041 c 0.35306,-0.0799 0.89375,0.59749 2.05305,0.69304 0.50202,0.0147 1.621,0.0204 2.89775,0.93008 0,1e-5 0,1e-5 0,1e-5 0.7938,0.888 1.05693,1.69999 1.0988,1.58511 -0.7521,-0.87196 0.69688,0.50727 0.83998,0.67588 0.67432,0.95832 0.75499,1.58245 0.63933,1.09312 -1.33958,-0.53946 -1.8638,-0.77943 -1.58701,-0.518 0,0 1e-5,0 1e-5,0 -0.0344,-0.35627 0.76069,-0.27343 2.37978,0.46673 0.72209,1.3667 0.89205,2.18214 0.58073,2.29907 0.11341,0.29685 0.0284,-0.0292 -0.14219,-1.0641 -0.29101,-0.32755 -0.21917,-0.52102 0.41375,0.13729 0.47196,0.40895 0.6027,0.61684 0.45652,0.40094 -0.73439,-0.51097 0.94103,0.23692 1.9137,0.93647 1.23264,1.59323 1.28892,2.37765 0.82196,1.40264 -0.728,-0.3728 -0.0866,-0.40243 1.16125,0.34308 1.06723,0.83163 1.27304,1.19813 0.77595,0.68985 -0.69863,-0.51248 0.35906,-0.25467 2.2986,1.42697 0.6618,1.92964 0.70671,3.01389 0.37026,3.0523 0.35675,0.33939 0.0604,-0.25979 -0.65745,-2.04553 -1.63137,-0.7184 -2.2717,-1.05308 -2.02502,-0.72446 0.0209,-0.26717 0.95584,-0.31746 2.80529,0.12665 1.87398,2.63478 2.32771,3.99643 1.49484,3.86591 0.44279,0.53222 0.14706,-0.28571 -0.71294,-2.60566 0,0 -6e-5,-3e-5 -6e-5,-3e-5 -2.09596,-0.85958 -2.94034,-1.17023 -2.5847,-0.7487 0,0 1e-5,2e-5 1e-5,2e-5 -0.10965,-0.5066 1.02379,-0.32818 3.35107,0.72385 1.05371,2.30491 1.26158,3.47102 0.75689,3.36125 0,0 1e-5,1e-5 1e-5,1e-5 0.43628,0.36033 0.14562,-0.47643 -0.73284,-2.64379 -0.36304,-0.19746 -0.26659,-0.33415 0.32712,-0.0526 -2.50794,-0.45001 -1.81955,-0.48293 1.96844,0.7231 0.89105,1.17352 1.24368,1.93243 1.17431,2.13036 -0.0699,0.0477 -0.71594,-0.34011 -1.84807,-1.35106 0.41366,0.88188 0.82868,1.79015 1.24534,2.72447 0.94599,0.7724 1.65506,1.43576 2.13589,1.96645 0,0 3e-5,3e-5 3e-5,3e-5 0.47059,-1.63945 0.614,-2.44769 0.23818,-2.50511 0.25306,0.36431 0.1983,0.37346 -0.0601,-0.0299 -0.6147,-0.80591 -1.88844,-0.97555 -3.88644,-0.55488 0,0 2e-5,-1e-5 2e-5,-1e-5 1.11712,-0.52478 2.47568,-0.61187 3.99597,-0.19162 0,0 2e-5,1e-5 2e-5,1e-5 1.32823,0.92078 2.07179,1.75262 2.31357,2.29806 0,0 10e-6,1e-5 10e-6,1e-5 -1.39694,-1.07804 -1.79989,-1.62119 -1.5788,-1.24772 2.13154,-0.65288 1.58164,0.0425 -2.11467,1.50824 -0.28836,0.92293 -0.42912,0.0464 0.60522,-2.11601 0,0 2e-5,-1e-5 2e-5,-1e-5 1.60081,-1.92748 2.73301,-2.62595 2.66741,-2.47152 0,0 0,0 0,0 0.33236,-0.44449 0.26766,-0.29516 -0.35654,0.35353 -0.48659,1.05062 -0.68034,1.68509 -0.50939,1.96268 0,0 1e-5,1e-5 1e-5,1e-5 -0.20132,0.56462 -0.3427,-0.54219 0.20637,-3.36142 1.56529,-2.1278 1.97996,-2.2329 0.72526,-0.74957 0,0 -1e-5,5e-5 -1e-5,5e-5 -0.38182,2.73853 -0.62895,2.51724 -0.20717,-0.27332 0,0 1e-5,-6e-5 1e-5,-6e-5 0.63724,-1.64722 1.03213,-1.97425 0.63964,-1.22225 0,0 -1e-5,1e-5 -1e-5,1e-5 -0.0867,1.47352 -0.34513,0.84696 0.0591,-1.75789 1.84656,-2.76937 2.394,-3.03701 0.92863,-1.22718 -0.25107,1.37831 -0.57182,1.69292 -0.375,0.53694 0,-1e-5 0,-1e-5 0,-1e-5 -0.13099,-0.1812 -0.1776,-1.28735 0.24712,-3.27391 0,0 0,-2e-5 0,-2e-5 0.0282,-0.0313 2.4657,-2.72884 2.49391,-2.7601 2.55969,-0.79131 2.55268,-0.59431 -0.22916,0.0576 0,0 -5e-5,1e-4 -5e-5,1e-4 -1.1092,2.68586 -1.47405,3.77906 -0.92813,3.36231 -0.62305,0.16847 -0.37077,-1.22806 0.92473,-4.10738 2.87308,-1.29427 4.27746,-1.55272 4.10874,-0.92912 0.41703,-0.5474 -0.67195,-0.18689 -3.37017,0.92602 0,0 -1.1e-4,4e-5 -1.1e-4,4e-5 -1.08371,2.31531 -1.44185,3.3684 -0.94931,3.23612 -0.28142,0.17391 -0.24189,-0.8383 0.24635,-3.00863 1.78593,-2.51972 2.62083,-2.72252 1.47631,-1.48642 0,0 -1e-5,7e-5 -1e-5,7e-5 -0.45541,3.12954 -0.68184,2.83176 -0.002,-0.74233 0,0 10e-6,-7e-5 10e-6,-7e-5 1.63139,-2.20345 2.04851,-2.30274 0.74013,-0.74218 -0.31152,1.81566 -0.5029,2.4128 -0.32171,1.85241 -0.25823,-0.0996 -0.35327,-0.44248 -0.26419,-1.01531 0.11405,-0.7333 0.52962,-1.84202 1.28793,-3.29498 2.50419,-1.26486 3.84959,-1.55656 3.95682,-0.99937 0.43151,-0.21466 -0.30485,-0.0735 -2.2405,0.29745 -1.23872,1.14528 -1.0372,0.30995 1.48492,-1.47928 1.64178,-0.51976 2.39035,-0.62631 2.21327,-0.43364 0.3793,0.012 0.68113,0.0351 0.90559,0.0544 0.25284,0.018 0.41711,0.035 0.49537,0.0351 0.91861,-0.57671 0.1625,-0.16751 -2.35676,1.05191 -1.11343,2.69937 -1.47416,3.78894 -0.92653,3.37176 0,0 -2e-5,1e-5 -2e-5,1e-5 -0.62383,0.16881 -0.36529,-1.23606 0.9295,-4.11042 3.0867,-0.73902 3.63209,-0.29343 1.51676,0.77531 -1.07286,2.12832 -1.50471,1.55202 -0.76833,-1.51 1.94369,-1.17376 2.78246,-1.52765 2.48336,-1.11907 0.3539,-0.0235 0.60021,-0.0257 0.73853,-0.0167 0,0 1e-5,0 1e-5,0 0.44873,0.0135 0.82578,0.0413 1.13036,0.0647 0,0 0,0 0,0 0.34112,0.0233 0.60873,0.0467 0.80811,0.052 0.0902,-0.002 0.0725,0.004 -0.0518,0.01 0,0 4e-5,-4e-5 4e-5,-4e-5 0.41645,-0.41579 -0.28085,-0.0543 -2.12464,1.02699 0,0 -1.6e-4,9e-5 -1.6e-4,9e-5 -1.10058,2.67121 -1.4568,3.74633 -0.91503,3.33213 0,0 -3e-5,0 -3e-5,0 -0.61693,0.16543 -0.36054,-1.22662 0.92067,-4.06804 2.23534,-1.29261 3.01825,-1.63688 2.32435,-1.08221 0.22385,-0.0213 0.38641,-0.0307 0.48738,-0.0324 0.33137,-0.0116 0.6347,-0.0128 0.90941,-0.009 0.2761,0.002 0.57902,0.009 0.90864,0.0265 0,0 1e-5,0 1e-5,0 0.10098,0.004 0.26315,0.0151 0.48575,0.0383 -0.69059,-0.55142 0.0904,-0.20659 2.30884,1.07784 1.33923,3.6459 1.5057,4.79399 1.06255,3.33162 0,0 0,0 0,1e-5 -1e-5,0.001 -0.021,1.48195 -0.021,1.48305 -0.0338,2.27522 -0.0747,4.50221 -0.12211,6.67373 -0.0852,3.90061 -0.19158,7.62223 -0.31676,11.12288 -0.0335,0.83406 -0.0294,1.73395 -0.0519,2.68431 -0.0135,0.55585 -0.0295,1.12241 -0.0605,1.71142 0,0 0,1e-5 0,1e-5 -0.01,0.19942 -0.0238,0.43732 -0.0488,0.71351 0,0 0,1e-5 0,1e-5 0.1344,-0.21368 0.0331,0.27269 -0.36084,1.41728 -0.14194,0.27809 -0.37814,0.69611 -0.7494,1.21782 l 0,0 c -0.58412,0.10403 -1.39987,0.39134 -2.45502,0.84193 l 0,0 c -0.5548,-0.53381 -1.04778,-0.97993 -1.46181,-1.37157 -1.18495,-1.12088 -1.69725,-1.5854 -1.66491,-1.31867 l 0,0 c 0.0198,-0.32418 0.0495,-0.55045 0.0757,-0.68209 l 0,0 4e-5,0 0,0 c 0.945,-0.016 1.87845,0.19793 2.77577,0.63327 0,0 3e-5,2e-5 3e-5,2e-5 0,0 0,-1e-5 0,-1e-5 0.0213,-0.0187 0.0445,-0.0538 0.0505,-0.0502 0.0112,0.007 0.0439,0.0406 0.0701,0.0644 0.6717,0.60868 1.32864,1.45376 1.82361,2.42692 0,1e-5 0,1e-5 0,1e-5 -0.01,-0.46997 0.1031,-0.30357 0.0266,0.44132 0.0381,0.2799 0.0831,1.02487 -0.10413,2.16003 -0.36304,1.33641 -0.80345,2.00502 -0.91402,2.30828 0.0365,-0.95615 0.13585,-0.65242 -0.0497,0.72912 -0.29126,0.91915 -0.64657,1.74251 -1.00295,2.46815 -0.45945,0.99294 -0.90088,1.3537 -0.78265,1.16406 -0.0779,-0.48792 0.0935,0.102 -0.11128,1.36003 -0.37957,1.29633 -0.86193,1.85551 -0.98086,2.17671 -0.0835,-0.34293 0.0735,0.41001 -0.22686,1.62955 -0.79567,1.2067 -1.47261,1.5209 -0.95667,0.87388 0.11805,-0.43329 0.15807,-0.51885 0.0762,-0.3028 -0.0317,0.11497 -0.0583,0.25069 -0.0848,0.3952 -0.0873,0.47241 -0.16262,0.9168 -0.24011,1.31942 -0.30677,1.56836 -0.5986,2.42511 -0.97573,2.42511 -0.32756,0 -0.71818,-0.82408 -1.0582,-2.39702 -0.087,-0.39551 -0.17806,-0.86855 -0.25042,-1.38255 -0.0224,-0.15343 -0.0433,-0.33012 -0.0551,-0.5292 -0.0706,0.0627 -0.0485,-0.17795 0.13933,-0.7526 0.67877,-1.07739 1.21248,-1.29825 0.52639,-0.60918 -0.005,0.58603 -0.32609,-0.22593 -0.22686,-1.33655 0.16806,-1.11378 0.55495,-1.93465 0.50218,-2.27245 -0.0247,0.48318 -0.26284,-0.29103 -0.11128,-1.60607 0.34538,-1.17818 0.76192,-1.79107 0.70042,-1.80204 0.19902,-0.66261 0.38046,-1.33738 0.4801,-1.98099 -0.0701,0.95585 -0.20239,0.63795 -0.0497,-0.75394 0.25779,-1.1702 0.61619,-1.89794 0.56902,-2.14086 -0.004,-0.14768 -0.12299,0.24514 -0.16024,-0.80765 -0.13393,-0.24604 -0.22492,-1.08128 0.0827,-2.52322 0,0 0,0 0,0 0.97286,-0.43552 1.99459,-1.04891 3.32048,-1.84571 0.0515,-0.0309 0.097,-0.0726 0.16432,-0.0879 0.0362,-0.008 0.0555,0.0221 0.0767,0.0359 0,0 0,0 0,0 0,0 4e-5,3e-5 4e-5,3e-5 0.89667,0.64629 1.79222,1.06983 2.71172,1.26442 l 0,0 4e-5,0 0,0 c -0.006,0.13878 -0.01,0.18451 0.003,0.13447 l 0,0 c 0.028,0.43727 -0.52892,0.19774 -1.57082,-0.82872 -0.3641,-0.3587 -0.79015,-0.83869 -1.29729,-1.40908 l 0,0 c -0.94549,0.36695 -1.67881,0.53962 -2.18287,0.53077 l 0,0 c 0.003,-0.006 0.0538,-0.17226 0.20553,-0.48147 -0.31082,0.97845 -0.4281,1.26478 -0.28173,0.8649 0,0 0,0 0,0 -7.7e-4,-0.0968 -0.007,-0.23325 -0.0117,-0.41071 0,0 0,0 0,0 -0.0156,-0.4864 -0.0438,-0.99058 -0.0734,-1.5348 -0.0472,-0.81507 -0.12239,-1.77928 -0.15518,-2.77419 -0.12518,-3.50065 -0.23158,-7.22227 -0.31676,-11.12288 -0.0474,-2.17152 -0.0883,-4.39851 -0.12211,-6.67373 1e-5,0.001 -0.021,-1.48415 -0.021,-1.48305 0,-1e-5 0,-1e-5 0,-1e-5 -0.44109,-1.96557 0.0846,-1.44248 1.06255,1.84858 2.16357,1.22942 2.84913,1.5889 2.08129,1.02922 0.0534,0.005 0.0456,0.007 -0.0236,0.003 0,0 0,0 0,0 -0.16514,-0.005 -0.3578,-0.004 -0.57903,-0.001 -0.22006,0.003 -0.41334,0.008 -0.57826,0.0185 -0.0689,0.006 -0.0764,0.005 -0.0218,0.002 -0.77152,0.56323 -0.0836,0.20399 2.09657,-1.03345 1.09775,-2.6581 1.46066,-3.74038 0.92065,-3.32653 0,0 -2e-5,2e-5 -2e-5,2e-5 0.618,-0.16599 0.3696,1.21826 -0.91502,4.07364 0,0 -1.7e-4,10e-5 -1.7e-4,10e-5 -1.92821,1.16577 -2.76468,1.52037 -2.46734,1.1148 0,0 2e-5,-3e-5 2e-5,-3e-5 -0.35182,0.0253 -0.59779,0.0295 -0.73634,0.0225 -0.44718,-0.008 -0.82333,-0.0302 -1.13072,-0.0484 0,0 -1e-5,0 -1e-5,0 -0.3389,-0.0177 -0.60948,-0.0359 -0.80844,-0.0357 0,0 -10e-6,0 -10e-6,0 -0.09,0.004 -0.0721,-3.9e-4 0.054,-0.004 -0.41826,0.41898 0.28158,0.0579 2.14047,-1.03118 0.37483,-2.70371 0.30292,-2.66591 -0.76819,-0.027 -2.63172,1.07045 -2.68518,1.14983 0.0337,0.77531 1.11129,-2.69097 1.47646,-3.78613 0.9295,-3.3689 0,0 -2e-5,2e-5 -2e-5,2e-5 0.62392,-0.16894 0.37089,1.22981 -0.92653,4.11329 -2.6963,1.39693 -3.7646,1.72151 -3.09715,1.13847 -0.38136,-0.0103 -0.67505,-0.0317 -0.88201,-0.048 -0.25098,-0.0162 -0.42645,-0.0313 -0.52518,-0.0305 -0.48061,0.18582 -0.057,0.0316 1.31265,-0.35224 1.25931,-1.16093 1.02725,-0.29624 -1.48118,1.48682 -2.17237,0.48934 -3.19185,0.5314 -3.01675,0.24927 -0.13232,0.49444 0.92126,0.13829 3.25003,-0.95119 0.56162,-1.25619 0.9313,-2.09509 1.06518,-2.54396 0.10463,-0.35075 0.0653,-0.46333 -0.13781,-0.35274 0.31616,-0.0469 0.32293,1.11575 -0.22534,3.40492 -1.62606,2.19451 -2.05896,2.31206 -0.74293,0.74088 0,0 1e-5,-6e-5 1e-5,-6e-5 0.45263,-3.11777 0.68188,-2.84366 -0.002,0.74069 0,0 -2e-5,8e-5 -2e-5,8e-5 -1.78238,2.50576 -2.64796,2.7371 -1.48979,1.47968 0.36953,-1.93277 0.50887,-2.6627 0.29453,-2.23237 0.55563,0.10761 0.26128,1.45259 -0.99749,3.94292 0,0 -1.2e-4,5e-5 -1.2e-4,5e-5 -2.88233,1.29689 -4.28048,1.54971 -4.11168,0.92601 -0.41713,0.54673 0.67753,0.18164 3.36722,-0.92912 1.1115,-2.6952 1.4715,-3.78256 0.92473,-3.36586 0.62279,-0.16834 0.36456,1.23459 -0.92812,4.10382 0,0 -6e-5,1.1e-4 -6e-5,1.1e-4 -3.15433,1.0185 -3.75085,0.84565 -1.71222,0.0576 0.3407,0.0677 0.67771,0.13622 1.01087,0.206 0,0 0,-1e-5 0,-1e-5 0.10131,-1.02737 0.31536,-1.03387 0.27559,-0.21558 0,0 0,1e-5 0,1e-5 0.27025,-0.10866 0.29216,1.09078 -0.40347,3.41078 -1.76034,2.41557 -2.20231,2.3842 -0.55443,0.25588 0.0889,-1.6498 0.38882,-1.23292 0.0591,1.20821 0,0 -10e-6,2e-5 -10e-6,2e-5 -0.66423,1.83199 -1.13325,2.34473 -0.8434,1.74384 0,0 10e-6,-5e-5 10e-6,-5e-5 0.27108,-2.37246 0.39112,-1.91707 -0.20717,1.20972 0,0 -1e-5,6e-5 -1e-5,6e-5 -1.57141,2.11552 -2.01056,2.2321 -0.75782,0.73347 0.17345,-2.10918 0.50613,-2.23972 0.42797,-0.89257 0,0 0,2e-5 0,2e-5 0.23042,0.67854 0.0142,1.74713 -0.70218,3.12934 -0.96026,1.133 -1.63099,1.47951 -1.86838,1.16717 0,0 0,1e-5 0,1e-5 -0.90327,1.26617 -1.19989,1.24438 -0.29868,0.49457 0,0 1e-5,-1e-5 1e-5,-1e-5 0.23349,-0.83488 0.26282,0.15203 -0.87784,2.33313 -3.97246,1.89582 -5.2239,2.16563 -3.59771,1.50824 -0.80857,0.37433 -2.39855,-0.30612 -4.29334,-2.26718 0,0 0,0 0,0 -0.20372,-0.24253 0.0482,-0.16802 0.57896,0.35143 0,0 1e-5,0 1e-5,0 0.99208,0.15612 1.74617,0.13885 2.36066,-0.087 0,0 1e-5,0 1e-5,0 -2.15097,0.5116 -3.6152,0.26538 -4.34973,-0.67125 -0.64955,-0.83186 -0.92241,-1.35182 -0.92757,-1.50114 -0.58682,-0.47834 -0.59331,-1.81053 0.12451,-3.84551 0,0 3e-5,2e-5 3e-5,2e-5 0.57753,0.37573 1.43459,0.91241 2.55376,1.6288 -0.68408,0.99995 -1.35901,1.97321 -2.02496,2.91947 -1.59517,-1.31954 -2.42347,-2.28869 -2.64137,-2.77093 -0.28417,-0.45263 0.0565,-0.091 0.48457,0.58413 3.4887,0.8554 3.41244,1.32238 0.48538,0.7231 -0.50968,-0.0897 -1.46636,-0.54147 -2.63898,-1.5356 -1.06304,-2.35235 -1.24472,-3.49761 -0.73284,-3.38531 0,0 1e-5,0 1e-5,0 -0.4271,-0.35838 -0.11392,0.49729 0.75689,2.61972 2.14225,0.86742 2.96721,1.15489 2.60954,0.72385 0,0 0,2e-5 0,2e-5 0.10703,0.49916 -1.04782,0.29375 -3.3262,-0.74869 0,0 -6e-5,-4e-5 -6e-5,-4e-5 -1.05697,-2.5178 -1.20638,-3.6645 -0.67821,-3.39537 -0.75243,-0.36987 -0.19003,0.6491 1.46011,3.17258 1.37191,0.20537 1.74122,0.35738 1.25278,0.223 -0.23513,0.45765 -1.4609,0.24496 -3.43863,-0.82081 -1.07742,-2.14693 -1.2038,-3.33901 -0.71394,-3.48226 -0.19087,-0.47233 0.0548,0.0279 0.42675,1.52293 1.29328,0.74731 0.95171,1.06648 -0.6675,-0.0561 -1.0483,-0.86929 -1.23511,-1.27468 -0.70709,-0.79319 0.40181,0.17461 -0.40814,-0.0485 -1.80485,-1.13998 -1.21151,-1.6937 -1.17462,-2.48014 -0.6611,-1.56346 0.66029,0.24816 0.0848,0.21841 -1.0524,-0.54659 -0.73805,-0.61016 -1.01247,-1.0074 -1.02652,-1.0821 0.0305,0.0413 -0.38058,-0.28794 -1.06931,-1.34577 -0.2906,-1.27674 -0.27266,-1.88034 -0.094,-1.84034 -0.24653,-0.12446 -0.0161,0.39852 0.53255,1.59227 1.43149,0.55391 1.92027,0.74939 1.63825,0.46673 0,0 0,1e-5 0,1e-5 0.028,0.34125 -0.80949,0.20243 -2.32853,-0.51801 -0.97403,-1.36238 -0.87572,-1.90078 -0.84371,-1.87298 0.30037,0.22447 -0.0785,-0.0244 -0.64308,-0.80717 -0.52885,-0.94576 -0.50694,-1.69867 -0.38424,-1.381 0,0 0,0 0,0 0.0299,-0.29592 -0.86207,-0.60175 -1.51666,-0.99208 -2.55919,-1.23028 -1.21704,-2.71222 -1.39276,-2.67243 z"
         style="fill:#000000;stroke:none;stroke-width:0.75px;stroke-linecap:butt;stroke-linejoin:miter;stroke-opacity:1" />
      <path
         transform="translate(0,-9)"
         inkscape:original-d="m 226.16527,149.08897 c -2.95215,-2.7558 -4.39702,4.42309 -5.93221,5.19069 -0.22108,0.11053 -0.52044,-0.11055 -0.74152,0 -0.31266,0.15632 -0.42888,0.58519 -0.74153,0.74152 -0.22108,0.11054 -0.56674,-0.17478 -0.74152,0 -0.34956,0.34956 0.34956,1.13349 0,1.48305 -0.78164,0.78164 -2.18447,0.70142 -2.9661,1.48305 -0.39082,0.39082 -0.35071,1.09223 -0.74153,1.48305 -0.39082,0.39082 -1.09223,0.35071 -1.48305,0.74153 -0.17478,0.17478 0.17478,0.56674 0,0.74152 -0.34956,0.34956 -1.1335,-0.34956 -1.48305,0 -0.17478,0.17478 0.17478,0.56675 0,0.74153 -0.17478,0.17478 -0.49435,0 -0.74152,0 0,0.24717 0.11053,0.52044 0,0.74152 -0.56786,1.13571 -1.32141,0.57989 -2.22459,1.48305 -0.63017,0.63018 -0.94832,1.51162 -1.48305,2.22458 -0.60149,0.80199 -1.51487,1.51488 -2.22457,2.22458 -0.24718,0.24717 -0.5852,0.42887 -0.74153,0.74152 -0.11054,0.22108 0.11055,0.52045 0,0.74153 -1.54302,3.08605 0.0512,-0.79272 -1.48305,0.74152 -0.17478,0.17478 0.17478,0.56675 0,0.74153 -0.17478,0.17478 -0.52044,-0.11054 -0.74152,0 -1.1357,0.56785 -0.57989,1.32141 -1.48305,2.22457 -0.17478,0.17478 -0.56675,-0.17478 -0.74153,0 -0.17478,0.17478 0.17478,0.56675 0,0.74153 -0.17478,0.17478 -0.56674,-0.17478 -0.74152,0 -1.53425,1.53424 2.34452,-0.06 -0.74153,1.48305 -0.22108,0.11054 -0.56675,-0.17478 -0.74152,0 -0.17478,0.17478 0.24717,0.74152 0,0.74152 -0.24718,0 0.24717,-0.74152 0,-0.74152 -0.34956,0 -0.42887,0.5852 -0.74153,0.74152 -0.22108,0.11055 -0.56675,-0.17477 -0.74153,0 -1.53424,1.53425 2.34453,-0.06 -0.74152,1.48306 -0.22108,0.11054 -0.56675,-0.17478 -0.74153,0 -0.17478,0.17477 0.17478,0.56675 0,0.74153 -0.17478,0.17477 -0.56674,-0.17478 -0.74152,0 -0.17478,0.17477 0.17478,0.56674 0,0.74152 -0.37077,0.37076 -1.85382,-0.37076 -2.22458,0 -0.17478,0.17478 0.17478,0.56675 0,0.74153 -0.17478,0.17478 -0.56674,-0.17478 -0.74152,0 -0.17478,0.17478 0.11054,0.52044 0,0.74152 -0.15633,0.31265 -0.49435,0.49435 -0.74153,0.74153 -0.74152,0.74152 -1.59537,1.38563 -2.22457,2.22457 -0.14831,0.19774 0.17478,0.56675 0,0.74153 -1.53425,1.53424 0.06,-2.34453 -1.48305,0.74152 -0.11055,0.22108 0.11053,0.52045 0,0.74153 -0.15633,0.31265 -0.58521,0.42887 -0.74153,0.74152 -0.23303,0.46607 0.23303,2.50004 0,2.9661 -0.15633,0.31266 -0.54763,0.45068 -0.74152,0.74153 -0.30659,0.45987 -0.43495,1.02318 -0.74153,1.48305 -0.69231,1.03846 -0.79075,0.44459 -1.48306,1.48305 -0.45158,0.67737 -0.63294,1.79953 -1.48305,2.22458 -0.22107,0.11054 -0.49434,0 -0.74152,0"
         inkscape:path-effect="#path-effect4788"
         inkscape:connector-curvature="0"
         id="path4786"
         d="m 226.16527,149.08897 c -0.21112,0.22617 -0.8523,0.01 -1.21801,0.28015 -0.0869,0.0708 -0.16578,0.19918 -0.19184,0.31615 0,0 0,0 0,0 -0.20916,0.24234 -0.25686,0.75261 -0.63642,1.54325 -0.24212,0.67797 -0.47683,1.50605 -0.87738,2.52476 0,0 0,0 0,0 -0.0203,0.49478 -0.44967,1.48693 -1.96436,2.61486 -2.32516,0.49786 -2.62143,0.29916 -0.70437,0.0742 1.01363,-0.83915 0.78527,-0.27385 -0.69332,0.83793 -1.4859,0.35795 -2.24523,0.39011 -2.16856,0.1969 -0.13075,0.33801 0.53101,0.10588 2.13521,-0.61826 0.66598,-1.72503 1.03162,-2.33169 0.71302,-1.88284 0.50814,0.0316 0.44797,1.19334 -0.61604,3.46287 -1.05485,0.93823 -1.98379,1.40964 -2.54073,1.53822 -0.48959,0.29087 -0.6678,0.28307 -0.24713,0.12307 0.72963,-1.24208 0.75722,-0.44799 -0.6652,1.55939 -1.98215,1.4857 -2.7573,1.52942 -1.41422,0.81035 0.93986,-2.27894 1.274,-3.20996 0.81375,-2.8347 0.54676,-0.12961 0.35022,1.08551 -0.78416,3.60581 -2.57083,1.22808 -3.99932,1.42502 -3.9944,0.84199 -0.50845,0.44875 0.2571,0.0933 2.56633,-0.78704 0.97802,-2.36963 1.32004,-3.33824 0.84066,-2.95359 0.56437,-0.13854 0.35612,1.11701 -0.8152,3.72061 -2.74986,0.68366 -3.34295,0.29839 -1.41823,-0.67671 0.70754,-1.30768 1.28041,-1.12934 1.36236,0.57692 -0.68364,1.23434 -1.71335,2.13852 -3.01002,2.61114 -0.26496,0.16331 -0.22211,0.0643 0.21757,-0.16898 0,0 0,0 0,0 0.035,-0.17485 -0.1231,0.55524 -1.09262,1.89592 -1.0609,1.36578 -1.98622,2.13182 -2.50796,2.66032 0,0 -1e-5,1e-5 -1e-5,1e-5 -0.88175,1.02023 -0.69742,0.55502 -0.0377,-0.20309 0,0 1e-5,-1e-5 1e-5,-1e-5 0.45078,-3.08288 0.67915,-2.77643 0.0108,0.74698 -0.13876,0.29056 -0.30454,0.6288 -0.50884,1.0068 0.0673,-0.003 -0.18293,0.38412 -0.79821,1.12931 -2.14683,0.96305 -4.29764,0.31589 -6.40267,-1.94705 -0.084,-0.79926 -0.0948,-1.1422 -0.0609,-1.022 0,0 0,1e-5 0,1e-5 -0.42144,-0.65762 -0.0625,-0.001 0.88194,2.09518 2.10312,1.23717 3.43099,1.55247 4.04204,0.89212 0.64618,-0.38993 0.8901,-0.51068 0.69627,-0.42649 0,0 3e-5,-8e-5 3e-5,-8e-5 1.11154,-2.69073 1.47799,-3.78814 0.93071,-3.37063 0,0 -2e-5,1e-5 -2e-5,1e-5 0.62427,-0.16913 0.37227,1.22899 -0.92662,4.11632 0,0 -7e-5,4e-5 -7e-5,4e-5 -2.4922,1.25984 -3.83978,1.55557 -3.9475,0.99912 0,0 -1e-5,-2e-5 -1e-5,-2e-5 -0.43067,0.21477 0.29969,0.0756 2.23615,-0.29464 0.52217,-0.35399 0.86018,-0.7352 1.07625,-1.24783 -0.10161,0.48328 -0.39399,1.1362 -0.92758,1.91251 -0.18799,0.2735 -0.40554,0.56175 -0.65457,0.86263 -2.8939,1.30249 -4.29717,1.55698 -4.12724,0.93134 -0.4187,0.54993 0.68198,0.18379 3.38484,-0.93221 0,0 3e-5,-7e-5 3e-5,-7e-5 1.11789,-2.70897 1.47971,-3.80224 0.93042,-3.38423 0,0 -2e-5,1e-5 -2e-5,1e-5 0.62642,-0.17005 0.36652,1.24006 -0.9322,4.12405 0,0 -8e-5,3e-5 -8e-5,3e-5 -2.89161,1.30108 -4.29265,1.55434 -4.12307,0.92918 0,0 1e-5,-2e-5 1e-5,-2e-5 -0.41819,0.54878 0.68134,0.18231 3.37894,-0.93186 -0.0837,0.19435 0.038,-0.05 0.4296,-0.69823 0,0 3e-5,-3e-5 3e-5,-3e-5 0.66235,-0.61275 0.34664,-1.94437 -0.89412,-4.05388 0,0 -5e-5,-9e-5 -5e-5,-9e-5 -2.10233,-0.94779 -2.76191,-1.30847 -2.10274,-0.88613 0,0 -1e-5,0 -1e-5,0 -0.12084,-0.0341 0.22286,-0.0235 1.02455,0.0604 2.27067,2.11224 2.92033,4.27032 1.95403,6.42462 -0.74711,0.61732 -1.13485,0.86873 -1.1315,0.80122 -0.37791,0.20522 -0.71598,0.37189 -1.00628,0.51148 0,0 -5e-5,2e-5 -5e-5,2e-5 -2.15906,0.48487 -3.16283,0.52195 -2.99101,0.24151 0,0 0,-1e-5 0,-1e-5 -0.13203,0.48803 0.91412,0.12987 3.20785,-0.94453 1.11096,-3.0723 1.4953,-4.13189 0.927,-3.31831 0,0 5e-5,-1e-5 5e-5,-1e-5 1.79717,-0.26679 0.66424,1.54532 -3.54651,5.13282 0,0 -1.2e-4,10e-5 -1.2e-4,10e-5 -3.02415,-1.40347 -4.26584,-2.83367 -3.73701,-4.21591 0.12655,-0.70575 0.21524,-1.04072 0.24043,-1.01296 0.0334,-0.19447 0.011,-0.0238 -0.0926,0.50407 0,0 -3e-5,8e-5 -3e-5,8e-5 -0.51491,1.27618 0.68557,2.57443 3.58921,3.96908 2.1719,-0.74655 3.08276,-1.16266 2.7355,-1.43592 0.2131,0.0258 -0.37771,0.66216 -1.84112,1.77075 -2.12908,0.47765 -3.11769,0.51182 -2.9505,0.23438 0,0 0,10e-6 0,10e-6 -0.13164,0.47869 0.89617,0.12401 3.14811,-0.93096 0,0 6e-5,-3e-5 6e-5,-3e-5 -0.0875,0.19109 0.0258,-0.047 0.40032,-0.67142 0.64102,-0.59339 0.33165,-1.88353 -0.87009,-3.92558 -2.03742,-0.91338 -2.66575,-1.25891 -2.02203,-0.84754 -0.11435,-0.0318 0.2213,-0.0204 0.99779,0.0623 0,0 1.8e-4,1.7e-4 1.8e-4,1.7e-4 2.19496,2.04156 2.82085,4.12724 1.88676,6.20724 0,0 -7e-5,1.7e-4 -7e-5,1.7e-4 -0.7269,0.59807 -1.10558,0.83974 -1.10788,0.77513 0,0 0,0 0,0 -0.37755,0.19888 -0.71626,0.3597 -1.00824,0.49411 -2.07828,0.46576 -3.04236,0.49579 -2.88288,0.22389 -0.13101,0.46389 0.86624,0.11572 3.05078,-0.90773 0,0 3e-5,-6e-5 3e-5,-6e-5 1.04891,-2.55818 1.38572,-3.57308 0.86771,-3.17149 0,0 -10e-6,1e-5 -10e-6,1e-5 0.58901,-0.15182 0.33981,1.18992 -0.88551,3.89529 -2.72449,1.22501 -4.03908,1.45053 -3.88756,0.86065 -0.39826,0.50737 0.62497,0.15413 3.12713,-0.87955 0,0 3e-5,-6e-5 3e-5,-6e-5 1.03197,-2.52023 1.36338,-3.51657 0.85329,-3.11906 0.58024,-0.14748 0.33438,1.17719 -0.87334,3.84057 -1.73573,1.10178 -2.79105,1.42458 -3.10003,1.09338 0,0 -1e-5,0 -1e-5,0 -0.57757,-0.059 -0.95003,-0.13541 -1.128,-0.19117 -0.25698,-0.0495 -0.31347,-0.0853 -0.18965,-0.0716 0,0 0,1e-5 0,1e-5 -0.009,0.29661 0.67939,-0.0434 2.12731,-0.89644 0,0 3e-5,-5e-5 3e-5,-5e-5 0.99229,-2.43113 1.31131,-3.38427 0.81988,-2.99639 0,0 -1e-5,1e-5 -1e-5,1e-5 0.55988,-0.13743 0.32196,1.14728 -0.84473,3.71313 -2.59046,1.1655 -3.83964,1.37189 -3.70252,0.81029 -0.38315,0.47636 0.57955,0.13558 2.93487,-0.83642 0,0 2e-5,-5e-5 2e-5,-5e-5 0.94434,-2.04399 1.24818,-2.93946 0.81514,-2.80745 0,0 -1e-5,10e-6 -1e-5,10e-6 0.24527,-0.13557 0.20507,0.78191 -0.2324,2.67575 0,0 0,1e-5 0,1e-5 -1.03696,1.42928 -1.54939,1.81993 -1.39083,1.54823 -1.01859,0.95372 -1.78204,1.406 -2.07923,1.7679 0.58034,-1.9074 0.77702,-2.62042 0.46676,-2.26024 0,0 1e-5,0 1e-5,0 0.47963,-0.0154 0.25253,1.13011 -0.78356,3.28693 0,0 -2e-5,5e-5 -2e-5,5e-5 -0.0935,0.16429 -0.54423,0.49821 -1.35617,0.92464 -0.61143,0.57052 -1.82124,0.33053 -3.5454,-0.73815 -0.95429,-1.8969 -1.12923,-2.76604 -0.78515,-2.59025 -0.016,-0.23236 0.0139,-0.10228 0.0587,0.36935 0,0 1e-4,1e-4 1e-4,1e-4 1.60092,1.66305 3.16876,2.14024 4.75312,1.45462 0,0 1e-4,-5e-5 1e-4,-5e-5 0.29265,-0.39971 0.36756,-0.47195 0.19021,-0.26288 -0.14109,0.19849 -0.29175,0.44174 -0.45633,0.70964 0.27577,-2.18865 0.48154,-1.90099 -0.0592,0.71182 -1.17211,1.56124 -1.71132,1.76186 -0.82906,0.69776 0.18403,-0.75355 0.26805,-0.9302 0.14458,-0.61782 -0.0276,0.17852 -0.0313,0.43097 -0.0356,0.73422 -0.003,0.29909 -0.003,0.64042 -0.023,1.04806 0,0 0,0 0,0 0.0848,0.10264 -0.0112,0.69793 -0.37124,1.65901 -0.83282,1.0968 -1.55104,1.60168 -0.99119,0.90865 0,0 0,0 0,0 -0.11711,-0.0373 -0.3669,0.5819 -0.93787,1.35217 -0.33154,0.43033 -0.83528,0.84966 -1.46633,1.18192 -0.0185,-0.11275 -0.14276,-0.0377 -0.32897,0.093 -0.89526,0.7867 -1.02374,1.65405 -2.40918,2.0299 -1.03136,0.12939 -1.05858,-0.59131 -1.05858,-0.63411 -1e-5,-0.24236 0.91806,-0.36527 0.42446,-0.63411 0.18246,-0.29001 -0.36074,-0.77499 0.55692,-2.41926 0.17952,-0.41629 0.52323,-0.91022 1.15409,-1.39009 -0.0389,5.2e-4 -0.0662,-0.10979 0.0167,-0.30113 0.005,-0.0674 0.0272,-0.62974 0.54519,-1.61392 0,0 0,-1e-5 0,-1e-5 0.7716,-1.05461 1.16248,-1.23595 0.49185,-0.57441 -0.178,0.59051 -0.31692,0.79235 -0.24016,0.46995 0,0 0,0 0,0 -0.0358,-0.18052 -0.0945,-0.4181 -0.1541,-0.72897 -0.0581,-0.27369 -0.1224,-0.62031 -0.16672,-1.04282 -0.13182,-0.0893 -0.0914,-0.68468 0.27566,-1.80689 1.10993,-1.58536 1.58207,-1.80608 0.654,-0.78528 -0.31855,2.20521 -0.55442,1.8376 -0.0592,-0.77124 0.1172,-0.29564 0.25696,-0.63222 0.43131,-1.00029 -0.0425,-0.0319 0.14946,-0.35654 0.63646,-0.95703 0,0 1.1e-4,-5e-5 1.1e-4,-5e-5 1.63849,-0.74143 3.2901,-0.25373 4.90483,1.48617 0,0 10e-5,1.1e-4 10e-5,1.1e-4 0.0723,0.62613 0.0842,0.91101 0.0627,0.83649 0.33544,0.54987 0.0674,0.10371 -0.6327,-1.50962 -1.61768,-0.9513 -2.63795,-1.21096 -3.10326,-0.70488 -0.43017,0.25236 -0.68853,0.36033 -0.47431,0.23308 0,0 -2e-5,4e-5 -2e-5,4e-5 -0.85778,1.97895 -1.17112,2.8225 -0.76371,2.56263 0,0 1e-5,0 1e-5,0 -0.38224,0.10851 -0.29197,-0.89957 0.44691,-3.01899 0.96619,-1.32427 1.80679,-2.04698 2.36991,-2.68124 0.68888,-0.813 0.77172,-0.68235 0.0922,0.0652 0,0 0,0 0,0 -0.31954,1.65866 -0.45769,2.29135 -0.28058,1.89951 0,0 -1e-5,0 -1e-5,0 -0.49524,-0.107 -0.25693,-1.29417 0.86332,-3.51424 0,0 2e-5,-5e-5 2e-5,-5e-5 2.53774,-1.15485 3.8109,-1.39043 3.67639,-0.83642 0.38512,-0.48606 -0.55558,-0.17058 -2.961,0.81029 -0.9838,2.38337 -1.327,3.35766 -0.84473,2.9716 0,0 -1e-5,1e-5 -1e-5,1e-5 -0.56702,0.13986 -0.35699,-1.12179 0.81988,-3.73791 0,0 3e-5,-6e-5 3e-5,-6e-5 1.67185,-1.07705 2.72132,-1.42078 3.03103,-1.10499 0,0 10e-6,0 10e-6,0 0.56879,0.0399 0.94692,0.0982 1.1312,0.13695 0.25772,0.0313 0.32278,0.0499 0.19283,0.0174 0,0 0,0 0,0 0.007,-0.31299 -0.68629,0.009 -2.19629,0.88483 -1.02468,2.48069 -1.37615,3.49511 -0.87334,3.09904 -0.58584,0.14945 -0.36314,-1.15556 0.85329,-3.86056 0,0 3e-5,-7e-5 3e-5,-7e-5 2.6849,-1.21675 4.01834,-1.46432 3.86865,-0.87956 0.3996,-0.5141 -0.6063,-0.17993 -3.14604,0.86066 -1.04222,2.52259 -1.39716,3.55414 -0.88551,3.15375 0,0 -2e-5,0 -2e-5,0 -0.59382,0.15351 -0.36559,-1.17012 0.86772,-3.913 0,0 3e-5,-6e-5 3e-5,-6e-5 2.35921,-1.19822 3.6484,-1.48319 3.75759,-0.95591 0.41589,-0.20517 -0.26664,-0.0747 -2.10663,0.27207 0.27835,-0.15076 0.51634,-0.27896 0.7017,-0.39353 0,0 0,-1e-5 0,-1e-5 0.23795,-0.19848 0.11489,-0.0769 -0.41374,0.32887 0,0 -7e-5,1.7e-4 -7e-5,1.7e-4 -0.87821,2.02578 -0.26299,4.02775 1.85521,6.05553 0,0 1.7e-4,1.7e-4 1.7e-4,1.7e-4 0.62533,0.0554 0.79887,0.0843 0.53065,0.0583 0.27159,0.42277 -0.78705,0.1646 -3.10265,-1.00001 -1.31937,-2.14873 -1.60861,-3.62858 -0.90337,-4.3677 0.52551,-0.96719 0.91308,-1.47818 1.09188,-1.55329 0,0 7e-5,-3e-5 7e-5,-3e-5 2.42671,-1.22982 3.74644,-1.52111 3.8549,-0.97913 0,0 0,1e-5 0,1e-5 0.42362,-0.2106 -0.28323,-0.0762 -2.17424,0.28255 -1.12698,0.94042 -1.53905,1.2078 -1.12726,0.91199 -0.16542,-0.56644 0.9859,-1.31359 3.5047,-2.06019 3.00887,1.39463 4.25481,2.81982 3.72825,4.20078 0,0 -4e-5,9e-5 -4e-5,9e-5 -0.12307,0.70298 -0.20917,1.0408 -0.23164,1.01387 -0.0305,0.19497 -0.006,0.027 0.1014,-0.50316 0.51722,-1.27768 -0.67923,-2.58072 -3.59797,-3.98419 0,0 -1.1e-4,1e-4 -1.1e-4,1e-4 -3.97855,3.58809 -5.21677,5.01124 -3.49223,4.52239 0,0 5e-5,-1e-5 5e-5,-1e-5 -0.6609,0.5226 -0.4549,-0.90118 0.87271,-4.19092 2.46857,-1.24932 3.80664,-1.54397 3.91463,-0.99271 0,0 1e-5,-1e-5 1e-5,-1e-5 0.42824,-0.21352 -0.29362,-0.0764 -2.21476,0.2897 0,0 -5e-5,1e-5 -5e-5,1e-5 0.28127,-0.14621 0.51933,-0.26829 0.70366,-0.37616 0.24376,-0.20146 0.11162,-0.0701 -0.43737,0.35496 -0.91039,2.10007 -0.27144,4.17444 1.92235,6.27275 0.64853,0.0565 0.83427,0.085 0.55754,0.0565 0,0 -1e-5,-1e-5 -1e-5,-1e-5 0.28739,0.43429 -0.80387,0.15986 -3.18336,-1.03858 0,0 -6e-5,-1e-4 -6e-5,-1e-4 -1.35841,-2.21624 -1.6539,-3.73759 -0.92738,-4.49599 0,0 3e-5,-4e-5 3e-5,-4e-5 0.54248,-0.99076 0.93909,-1.50892 1.12117,-1.58009 2.88085,-1.29758 4.29019,-1.55763 4.12046,-0.93186 0,0 1e-5,-2e-5 1e-5,-2e-5 0.41778,-0.54898 -0.67419,-0.18781 -3.38156,0.92918 0,0 -7e-5,3e-5 -7e-5,3e-5 -1.11529,2.70072 -1.48165,3.80103 -0.9322,3.38252 0,0 -2e-5,1e-5 -2e-5,1e-5 -0.62548,0.1698 -0.37155,-1.23255 0.93042,-4.12575 0,0 3e-5,-8e-5 3e-5,-8e-5 2.88615,-1.29944 4.29662,-1.55909 4.12637,-0.93221 0.41814,-0.54943 -0.67602,-0.18708 -3.38571,0.93134 -0.0747,0.12656 -0.13886,0.22437 -0.19032,0.29538 -0.1467,0.2024 -0.18828,0.18501 -0.0832,0.004 0.48166,-1.36561 1.41927,-2.47083 2.73371,-3.22092 2.17424,-0.489 3.18664,-0.5282 3.01239,-0.24646 0,0 0,-2e-5 0,-2e-5 0.13226,-0.49328 -0.92344,-0.13393 -3.24072,0.95095 0,0 -6e-5,3e-5 -6e-5,3e-5 -1.11478,2.70304 -1.47474,3.79211 -0.92662,3.37479 0,0 -2e-5,0 -2e-5,0 -0.6243,0.16904 -0.36421,-1.2382 0.93071,-4.11215 0,0 3e-5,-8e-5 3e-5,-8e-5 0.0717,-0.18165 0.58946,-0.57734 1.57814,-1.11806 0.75672,-0.72453 2.27433,-0.42943 4.48418,0.9254 1.1952,2.37375 1.46772,3.4616 1.0344,3.17581 0,0 0,1e-5 0,1e-5 0.0283,0.27609 -4.1e-4,0.0911 -0.0567,-0.5547 -2.09142,-2.18635 -4.15852,-2.8228 -6.25112,-1.91566 -0.42305,0.54705 -0.55321,0.67827 -0.35196,0.43517 0.10884,-0.18432 0.23184,-0.42229 0.37878,-0.70313 -0.44122,3.06853 -0.6678,2.79851 0.0108,-0.73608 0,0 2e-5,-2e-5 2e-5,-2e-5 1.13842,-1.58074 1.67025,-2.01971 1.44532,-1.68611 0,0 0,0 0,0 1.0047,-0.99819 1.74366,-1.47753 1.94118,-1.78885 0.11834,-0.10977 0.5941,-1.13399 1.87348,-2.55323 0,0 1e-5,0 1e-5,0 1.12359,-0.91269 2.0553,-1.3566 2.69364,-1.47762 -0.43904,0.20554 -0.74732,0.5075 -1.03692,0.95368 0.30691,1.25219 0.65346,0.90315 1.36236,-0.90612 2.42853,-0.96935 2.46726,-1.00197 0.0648,-0.67671 -0.98672,2.41858 -1.304,3.36563 -0.8152,2.97908 -0.557,0.13601 -0.32024,-1.14304 0.84066,-3.69512 2.6828,-1.25166 4.0618,-1.38444 4.04937,-0.78704 0.502,-0.42502 -0.30141,-0.0227 -2.51134,0.84199 -0.94965,2.33508 -1.25551,3.24186 -0.78416,2.86429 -0.53804,0.12658 -0.30883,-1.11504 0.81375,-3.57622 2.06421,-1.4644 2.844,-1.43193 1.55188,-0.6727 -0.68314,1.29553 -0.63004,0.51251 0.81786,-1.40672 1.22309,-0.96314 2.17306,-1.31708 2.71896,-1.35997 0.56077,-0.23177 0.68459,-0.0965 0.42538,0.0552 -0.68906,1.88972 -0.9798,2.44426 -0.61604,1.97982 -0.48217,-0.0464 -0.31144,-1.28862 0.71302,-3.36589 1.78128,-0.90086 2.73455,-1.06583 2.842,-0.66644 0.33203,-0.12386 -0.13853,0.004 -1.39231,0.24508 -0.95615,0.88186 -0.72441,0.40523 0.78974,-0.64511 2.31386,-0.43949 2.72456,-0.20527 0.77867,0.0742 -0.3122,0.52954 -0.20508,0.13394 0.35448,-0.42996 0,0 0,-1e-5 0,-1e-5 0.54587,-0.73831 1.08746,-1.55338 1.67327,-2.26365 0.59249,-0.8288 1.46366,-1.55511 2.44559,-1.92389 0,0 0,0 0,0 0.61178,-0.21551 1.20238,-0.14306 1.64204,0.0358 1.16858,0.57537 0.96509,1.36799 0.86103,1.47947 z"
         style="fill:#000000;stroke:none;stroke-width:0.75px;stroke-linecap:butt;stroke-linejoin:miter;stroke-opacity:1" />
      <path
         transform="translate(0,-9)"
         inkscape:original-d="m 192.0551,145.38135 c 0.24717,0.9887 0.49435,1.9774 0.74152,2.9661 0.24718,0.24718 0.5852,0.42887 0.74153,0.74152 0.11054,0.22109 0,0.49436 0,0.74153 0,0.49435 -0.15633,1.01407 0,1.48305 0.11054,0.33163 0.5852,0.42887 0.74152,0.74153 0.11054,0.22108 0,0.49435 0,0.74153 0.24718,0.24717 0.56168,0.44178 0.74153,0.74152 0.85057,1.41762 1.374,3.03153 2.22458,4.44915 0.45852,0.7642 1.02453,1.46038 1.48305,2.22458 0.28436,0.47394 0.4099,1.04089 0.74152,1.48305 0.41947,0.55929 1.06359,0.92376 1.48305,1.48305 0.97189,1.29585 0.73532,2.21215 1.48305,3.70763 0.15633,0.31265 0.53179,0.46187 0.74153,0.74152 5.51499,7.35332 -1.22588,-1.46805 2.22457,3.70763 1.24808,1.87211 0.14445,-0.89561 2.22458,2.22457 0.13711,0.20567 -0.17478,0.56675 0,0.74153 0.17478,0.17478 0.56675,-0.17478 0.74152,0 0.17478,0.17478 -0.11053,0.52045 0,0.74152 0.31266,0.62532 1.1704,0.85775 1.48306,1.48305 0.11054,0.22109 -0.11054,0.52045 0,0.74153 0.0984,0.19689 2.02769,2.12614 2.22458,2.22458 0.22107,0.11054 0.56674,-0.17478 0.74152,0 0.39082,0.39082 0.56675,0.95871 0.74153,1.48305 0.0782,0.23449 -0.17478,0.56675 0,0.74153 0.17478,0.17478 0.56674,-0.17478 0.74152,0 0.17478,0.17478 -0.17478,0.56674 0,0.74152 0.17478,0.17478 0.56675,-0.17478 0.74153,0 0.34956,0.34956 -0.44217,1.26197 0,1.48305 0.44216,0.22108 1.13349,-0.34956 1.48305,0 0.34956,0.34956 -0.27422,1.07173 0,1.48305 0.30658,0.45988 1.09223,0.35071 1.48305,0.74153 0.39081,0.39081 0.56674,0.95871 0.74152,1.48305 0.0782,0.23449 -0.22108,0.63099 0,0.74152 0.44216,0.22109 1.0409,-0.22108 1.48305,0 0.22109,0.11054 -0.17478,0.56675 0,0.74153 0.17478,0.17478 0.56675,-0.17478 0.74153,0 0.17478,0.17478 0,0.49435 0,0.74152 0,0.24718 0,0.49436 0,0.74153"
         inkscape:path-effect="#path-effect4792"
         inkscape:connector-curvature="0"
         id="path4790"
         d="m 192.0551,145.38135 c 0.55675,-0.13919 1.34363,0.78334 2.08599,2.20488 0,0 0,0 0,0 0.0307,-0.1523 0.38059,-0.13545 1.04492,0.67881 0.35248,1.25054 0.38137,1.92099 0.34275,1.56546 0.13099,0.89679 0.0339,1.26214 0.14023,0.77277 -1.49484,-1.94296 0.0705,-0.54771 0.76173,0.37632 0.26534,1.21361 0.22214,1.86719 -0.0114,0.93072 0,0 0,0 0,0 -0.0962,-0.35549 0.21285,-0.38024 0.86385,0.27061 1.10833,1.53095 1.83947,3.18981 2.63842,4.20085 0.34713,0.46285 0.94728,1.09568 1.64467,2.12763 0.6622,1.07897 0.77472,1.57689 0.62907,1.14176 -0.22768,-0.21553 0.47274,0.15456 1.56588,1.42094 0.72807,0.97839 1.21526,1.98635 1.48282,2.95073 0.21561,0.64504 0.33058,1.08839 0.45975,1.22907 -1.07901,-1.25967 -0.68576,-1.15474 0.41786,0.16742 0,0 1e-5,1e-5 1e-5,1e-5 0.69843,0.88245 1.52413,1.89926 2.32833,3.04667 l 0,0 -7e-5,1e-5 0,0 c -1.18958,0.0961 -2.02229,1.12062 -2.53235,3.09138 0,0 -3e-5,1.1e-4 -3e-5,1.1e-4 l 0,0 c -0.0314,0.0175 -0.0714,0.0272 -0.10797,0.0366 -0.11935,0.0307 -0.23635,0.0601 -0.35284,0.0905 -1.13439,0.29648 -2.19706,0.65621 -3.19862,1.0914 l 0,0 -2e-5,1e-5 0,0 c -0.14353,-0.15895 -0.24999,-0.27975 -0.32457,-0.35424 l 0,0 c -0.0457,-0.0407 -0.0148,-0.0154 0.089,0.0812 l 0,0 -5e-5,-6e-5 0,0 c -0.76278,-0.80185 0.75347,-1.42913 4.54952,-1.8131 0,0 0,-1e-5 0,-1e-5 0.009,-0.0767 0.0285,-0.14175 0.0495,-0.20967 0.0516,-0.16656 0.11159,-0.32993 0.17343,-0.48915 0.27894,-0.71817 0.61222,-1.35038 0.98616,-1.88983 0.0445,0.0772 0.093,0.15766 0.14531,0.24171 0.16589,0.26676 0.37039,0.57148 0.59405,0.91322 0.59082,0.47918 0.28697,0.3949 -0.85608,-0.56601 -2.78008,-0.0866 -3.8056,-0.14926 -3.09237,-0.0766 3.59717,-0.16471 5.14918,0.2187 4.64691,0.90369 0.79097,0.85093 1.24994,1.54625 1.49663,1.98318 0.7592,2.45304 0.86322,3.61377 0.46244,3.44975 0.51224,0.24564 0.15031,-0.82065 -0.93624,-3.26393 0,0 -5e-5,-2e-5 -5e-5,-2e-5 -2.67491,-1.10084 -3.7451,-1.45327 -3.33122,-0.91115 0,0 1e-5,1e-5 1e-5,1e-5 -0.16505,-0.61585 1.23001,-0.35535 4.06106,0.92295 1.24307,2.46531 1.52146,3.78186 0.97318,3.88845 0.20663,0.42484 0.0629,-0.29788 -0.30042,-2.18183 0,0 0,-3e-5 0,-3e-5 -1.15149,-1.21333 -0.25738,-0.90587 1.4257,1.5117 0,0 0,4e-5 0,4e-5 0.64641,3.4239 0.41545,3.7449 -0.0246,0.75415 -0.40812,-0.64434 -0.52974,-0.84625 -0.39148,-0.59641 0.0244,0.0362 0.0733,0.0948 0.14323,0.17704 0.18886,0.2211 0.39409,0.45 0.60864,0.68628 0,0 0,0 0,0 0.21957,0.24106 0.42461,0.46547 0.62346,0.67542 0,0 0,1e-5 0,1e-5 0.0754,0.0785 0.12739,0.13607 0.15821,0.1703 0,0 0,0 0,0 0.23935,0.13925 0.0394,0.026 -0.57764,-0.35875 -1.77016,-0.32915 -2.41554,-0.45202 -2.01059,-0.25335 0,0 0,-1e-5 0,-1e-5 0.11063,-0.50511 1.3577,-0.22605 3.61393,0.92515 1.05409,1.34328 1.43942,2.33481 1.46404,2.83891 0.63991,3.27814 0.0429,2.93635 -0.83075,-0.50609 -2.3385,-0.94884 -3.23891,-1.24954 -2.86156,-0.77755 0,0 1e-5,0 1e-5,0 -0.1255,-0.53541 1.11812,-0.30129 3.56369,0.81693 1.1158,2.48367 1.3004,3.67191 0.76197,3.54675 0,0 1e-5,0 1e-5,0 0.44765,0.36963 0.11298,-0.54464 -0.80396,-2.76325 -2.25449,-0.91125 -3.11348,-1.19984 -2.74517,-0.74539 -0.11586,-0.51592 1.09012,-0.28886 3.44196,0.79013 1.19085,2.74512 1.22784,4.03717 0.63771,3.88729 0,0 0,0 0,0 -0.0428,0.20131 -0.0549,0.0665 0.005,-0.36046 0,0 0,-10e-6 0,-10e-6 0.12194,-0.80906 -0.39256,-1.61437 -1.50011,-2.48905 0,0 -2e-5,-2e-5 -2e-5,-2e-5 -1.39057,-0.19592 -1.73242,-0.32914 -1.24673,-0.18458 0,0 0,0 0,0 0.24093,-0.44422 1.47202,-0.20316 3.3765,0.84106 1.05183,2.12325 1.13218,3.25447 0.65045,3.39581 0.16423,0.4628 -0.10346,-0.0317 -0.45499,-1.3931 -0.74758,-0.59754 -0.92728,-0.79494 -0.77192,-0.55353 0.21354,-0.009 0.87637,0.33021 1.77235,1.06255 0.8373,1.13285 1.04728,1.98901 1.05591,2.48659 0.12104,1.2147 0.0376,1.69979 -0.0894,1.58697 0.40559,0.0249 -0.0231,-0.61309 -1.02033,-1.92102 -0.69597,-0.0691 -0.79331,-0.11911 -0.49661,-0.0108 0.23715,-0.1139 0.94214,-0.0321 1.83223,0.30571 1.10868,1.56576 1.19748,2.28153 0.73413,2.26142 0.17684,0.33914 -0.0946,-0.0918 -0.46592,-1.06815 -1.00887,-0.3424 -1.22753,-0.43228 -0.99389,-0.23272 0.0392,-0.21405 0.69845,-0.0525 1.55574,0.4124 0.55586,1.54867 0.13232,1.62047 -0.001,1.54999 -0.25996,0.48559 -0.52999,0.74154 -0.807,0.74154 -0.27701,0 -0.54704,-0.25595 -0.807,-0.74154 -0.25327,-0.68741 -0.10761,-0.83856 -0.001,0.0669 0.68836,0.29375 1.03761,0.54076 0.81421,0.4124 -0.0108,0.26204 -0.52382,0.30508 -1.73542,-0.23272 -0.55684,-1.15901 -0.70352,-1.92536 -0.43119,-1.85786 -0.39804,-0.25625 -0.17162,0.12754 0.6994,1.56807 0.4396,0.11741 0.6551,0.30686 0.34918,0.30571 -0.18646,0.20073 -0.80201,0.29358 -1.97966,-0.0108 -1.20545,-1.4109 -1.59827,-2.3595 -1.12749,-2.56957 -0.0589,-0.39408 -0.0113,-0.17598 0.0177,0.75248 -0.32908,-0.49179 -0.43739,-0.77257 -0.42713,-0.47952 0.48795,0.3287 0.59286,0.54524 0.22612,0.37282 -0.36843,0.09 -1.12605,-0.2752 -2.19179,-1.34685 -0.63815,-1.79096 -0.7113,-2.86901 -0.39849,-2.92247 -0.35343,-0.33886 -0.0939,0.20336 0.59395,1.95908 1.56305,0.70055 2.20635,1.05609 1.9629,0.7447 0,0 0,0 0,0 -0.0199,0.27546 -0.92764,0.34814 -2.79923,-0.0882 0,0 -2e-5,-2e-5 -2e-5,-2e-5 -1.3027,-0.97224 -1.90875,-2.01101 -1.77488,-3.04072 0,0 0,-2e-5 0,-2e-5 0.0752,-0.71453 0.16114,-1.11951 0.20983,-1.19547 0,0 0,0 0,0 -0.42805,-0.67973 -0.0827,-0.0278 0.70717,2.30788 2.17044,0.89682 3.06514,1.2276 2.70043,0.79013 0.12053,0.52925 -1.04623,0.35111 -3.4867,-0.74539 -1.09922,-2.40018 -1.32993,-3.62558 -0.80396,-3.50477 0,0 1e-5,0 1e-5,0 -0.46351,-0.37297 -0.16868,0.50738 0.76197,2.80523 2.26385,0.93584 3.19646,1.27414 2.82217,0.81693 0,0 1e-5,0 1e-5,0 0.1295,0.54702 -1.07889,0.35635 -3.60308,-0.77755 -1.26077,-3.89201 -1.28859,-4.68317 -0.83075,-1.98915 -0.33423,-0.55223 -0.2625,-0.64886 -0.019,-0.12719 2.08194,0.97674 3.03701,1.31837 2.90713,0.87697 0,0 0,-1e-5 0,-1e-5 0.14853,0.26505 -0.77763,0.24317 -2.78683,-0.20517 -0.729,-0.44067 -1.01854,-0.64704 -0.8738,-0.5903 0,0 0,0 0,0 -0.15165,-0.12475 -0.27733,-0.23256 -0.37926,-0.32101 0,0 0,0 0,0 -0.29461,-0.25463 -0.57348,-0.50605 -0.84135,-0.75245 -10e-6,0 -10e-6,0 -10e-6,0 -0.26302,-0.24128 -0.53776,-0.50002 -0.81924,-0.77851 -0.0959,-0.0939 -0.21268,-0.21322 -0.34807,-0.36043 0.0558,0.15502 -0.15851,-0.13552 -0.62301,-0.89257 -0.66695,-3.43431 -0.44535,-3.70378 -0.0246,-0.7289 0,0 0,3e-5 0,3e-5 1.11295,1.22852 0.20706,0.9786 -1.54042,-1.4544 0,0 -1e-5,-4e-5 -1e-5,-4e-5 -0.48148,-2.11981 -0.52672,-3.12652 -0.25223,-2.95806 -0.48585,-0.13264 -0.14237,0.89215 0.925,3.18165 2.64819,1.09515 3.73315,1.4615 3.31955,0.92295 0,0 0,1e-5 0,1e-5 0.16577,0.618 -1.2132,0.37404 -4.07274,-0.91114 0,0 -5e-5,-3e-5 -5e-5,-3e-5 -1.26409,-2.62068 -1.54578,-3.98531 -0.96449,-3.98229 -0.32967,-0.4173 -0.122,0.45206 0.49069,2.68505 -0.39467,-0.52476 -0.56238,-0.83794 -0.60264,-0.81812 -0.71039,0.47787 0.56621,0.58056 3.89756,0.54437 0.56845,0.14212 -0.60556,0.19054 -3.5297,0.0321 -1.6641,-1.21537 -2.29308,-1.95057 -2.01929,-1.96323 -0.22186,-0.32653 -0.47117,-0.69824 -0.73217,-1.12031 -0.082,-0.13255 -0.16494,-0.26984 -0.24855,-0.41215 0.26331,-0.7289 0.48466,-1.55066 0.67828,-2.47035 0.0437,-0.20754 0.0851,-0.41975 0.12876,-0.62728 0.0184,-0.0875 0.0381,-0.17942 0.0668,-0.26113 0,0 0,0 0,0 3.86821,-0.40271 5.44308,-0.94689 4.73674,-1.70016 l 0,0 -5e-5,-5e-5 0,0 c 0.2224,0.19869 0.36261,0.3363 0.42516,0.40827 l 0,0 c 0.21989,0.23215 0.39485,0.43072 0.53132,0.58881 l 0,0 -1e-5,1e-5 0,0 c -0.7822,0.68368 -1.63203,1.29719 -2.53628,1.83029 -0.0928,0.0547 -0.18651,0.10898 -0.27915,0.16048 -0.0284,0.0158 -0.0536,0.0311 -0.0875,0.0386 l 0,0 c 0,0 -3e-5,1e-4 -3e-5,1e-4 -0.53307,1.87783 -1.44019,2.82985 -2.68384,2.84708 l 0,0 -7e-5,0 0,0 c -0.59684,-0.89539 -1.31555,-1.8323 -2.04968,-2.86067 0,0 1e-5,1e-5 1e-5,1e-5 0.75252,0.84402 0.25134,0.48192 -1.0652,-1.31562 -0.48445,-1.08762 -0.72262,-1.98232 -0.85518,-2.62828 -0.0809,-0.32844 -0.11654,-0.54582 -0.16835,-0.60718 0.27179,0.16521 -0.38628,-0.2662 -1.40022,-1.54516 -0.8514,-1.38501 -0.92269,-1.92219 -0.85397,-1.82434 -0.24844,-0.54443 -0.78084,-1.30485 -1.32143,-2.32153 -1.04896,-2.06877 -1.3612,-3.63194 -1.81074,-4.69745 0.27266,0.0296 -0.036,-0.36469 -0.61921,-1.21243 0,0 0,0 0,0 -0.19711,-1.2836 -0.0866,-1.49228 -0.0114,-0.55234 0.97416,1.08355 0.36962,0.6821 -0.72131,-1.10674 -0.21683,-1.51794 0.0271,-2.12739 0.14023,-2.19333 -0.0409,-0.92838 0.21505,-0.68262 0.34275,0.0824 0.30567,0.13058 2.4e-4,-0.16171 -0.43814,-0.80422 0,0 0,0 0,0 -0.20398,-2.3835 0.0416,-3.58698 0.60295,-3.72732 z"
         style="fill:#000000;stroke:none;stroke-width:0.75px;stroke-linecap:butt;stroke-linejoin:miter;stroke-opacity:1" />
      <path
         transform="translate(0,-9)"
         inkscape:original-d="m 268.43222,157.98728 c -2.28931,-1.71698 -2.61717,-2.4514 -5.19068,-2.9661 -0.48475,-0.0969 -0.9887,0 -1.48305,0 -0.24718,0 -0.52045,0.11054 -0.74153,0 -3.08605,-1.54303 0.79272,0.0512 -0.74153,-1.48305 -7e-4,-7.1e-4 -2.22121,7.5e-4 -2.22457,0 -0.33162,-0.11054 -0.42887,-0.5852 -0.74153,-0.74152 -0.22107,-0.11055 -0.52044,0.11053 -0.74152,0 -0.31265,-0.15633 -0.42887,-0.58521 -0.74153,-0.74153 -0.66324,-0.33162 -1.56133,0.33162 -2.22457,0 -0.22108,-0.11054 0.17478,-0.56675 0,-0.74153 -0.17478,-0.17477 -0.49435,0 -0.74153,0 -0.49435,0 -0.9887,0 -1.48305,0 -2.22457,0 -4.44915,0 -6.67373,0 -0.9887,0 -1.9774,0 -2.9661,0 -0.24718,0 -0.49435,0 -0.74152,0 -0.24718,0 -0.52045,-0.11054 -0.74153,0 -0.31265,0.15633 -0.42887,0.5852 -0.74152,0.74153 -0.22109,0.11054 -0.50704,-0.0782 -0.74153,0 -0.52434,0.17477 -0.95872,0.56675 -1.48305,0.74153 -0.23449,0.0782 -0.56675,-0.17478 -0.74152,0 -0.17478,0.17477 0.17477,0.56674 0,0.74152 -0.17478,0.17478 -0.56676,-0.17478 -0.74153,0 -0.17478,0.17478 0.11054,0.52044 0,0.74153 -0.31266,0.6253 -1.1704,0.85773 -1.48306,1.48305 -0.11053,0.22107 0.17478,0.56674 0,0.74152 -0.39081,0.39082 -1.09223,0.35071 -1.48305,0.74153 -0.17478,0.17478 0.17478,0.56674 0,0.74152 -0.17478,0.17478 -0.56674,-0.17478 -0.74152,0 -0.0298,0.0299 0,2.69379 0,2.9661 0,0.19729 -0.12245,2.16335 0,2.22458 0.44216,0.22108 1.01407,-0.15633 1.48305,0 0.33162,0.11054 0.4099,0.63099 0.74152,0.74152 0.46899,0.15633 1.01408,-0.15632 1.48306,0 0.33162,0.11054 0.40991,0.63099 0.74153,0.74153 3.37563,0 0.0424,-0.34956 2.22457,0.74153 0.22108,0.11053 0.49435,0 0.74153,0 0.49434,0 1.01406,-0.15633 1.48305,0 0.66324,0.22108 0.80481,1.31349 1.48305,1.48305 0.64259,0.16064 4.23314,0 5.19067,0 0.24718,0 0.50704,-0.0782 0.74153,0 0.52434,0.17478 0.95871,0.56674 1.48305,0.74152 0.23449,0.0782 0.49435,0 0.74153,0 0.49435,0 0.98869,0 1.48305,0 1.48305,0 2.9661,0 4.44915,0 0.24718,0 0.49435,0 0.74152,0 0.24718,0 0.52045,-0.11054 0.74153,0 3.39367,1.69683 -3.1466,-0.30734 2.22457,1.48305 0.70348,0.23449 1.5052,-0.17985 2.22459,0 3.58078,0.8952 -0.0367,0.35239 2.22457,1.48305 0.22108,0.11055 0.52044,-0.11054 0.74153,0 0.31265,0.15633 0.42887,0.5852 0.74152,0.74153 0.22108,0.11054 0.56675,-0.17478 0.74153,0 0.39081,0.39082 0.3507,1.09223 0.74152,1.48305 0.17478,0.17478 0.52045,-0.11054 0.74153,0 0.19688,0.0984 2.12613,2.02769 2.22457,2.22457 0.11054,0.22109 -0.11053,0.52045 0,0.74153 1.54303,3.08605 -0.0512,-0.79271 1.48305,0.74152 0.17478,0.17478 -0.11053,0.52045 0,0.74153 0.15633,0.31266 0.5852,0.42887 0.74153,0.74153 0.11054,0.22108 0,0.49435 0,0.74153 0,0.24717 0,0.49434 0,0.74152 0,1.23587 0,2.47175 0,3.70763 0,0.74152 0,1.48305 0,2.22457 0,0.24718 0.17478,0.56675 0,0.74153 -0.17478,0.17478 -0.52044,-0.11055 -0.74153,0 -0.88983,0.44491 -1.33474,1.77966 -2.22457,2.22457 -0.44217,0.22109 -1.01407,-0.15632 -1.48305,0 -0.33162,0.11054 -0.42888,0.5852 -0.74153,0.74153 -0.22108,0.11054 -0.52045,-0.11054 -0.74152,0 -0.31266,0.15633 -0.42888,0.5852 -0.74153,0.74152 -0.22108,0.11054 -0.50173,-0.0599 -0.74152,0 -1.5166,0.37916 -2.91624,1.17647 -4.44916,1.48306 -0.82498,0.16499 -2.74161,0 -3.70763,0 -0.49434,0 -1.00346,-0.1199 -1.48305,0 -0.53619,0.13405 -0.94685,0.60747 -1.48305,0.74152 -0.66202,0.16551 -2.84929,0 -3.70762,0 -2.47175,0 -4.94351,0 -7.41526,0 -1.73901,0 0.34956,0.17478 -1.48305,-0.74152 -0.44216,-0.22109 -1.04089,0.22108 -1.48305,0 -2.26132,-1.13067 1.35621,-0.58786 -2.22457,-1.48306 -0.4796,-0.11989 -1.0409,0.22109 -1.48305,0 -0.22109,-0.11053 0.17477,-0.56674 0,-0.74152 -0.17478,-0.17478 -0.52045,0.11054 -0.74153,0 -0.31266,-0.15633 -0.42887,-0.5852 -0.74153,-0.74153 -0.22108,-0.11053 -0.56675,0.17478 -0.74153,0 -0.17477,-0.17478 0.17478,-0.56674 0,-0.74152 -0.17477,-0.17478 -0.56674,0.17478 -0.74152,0 -0.17478,-0.17478 0.17478,-0.56675 0,-0.74153 -0.17478,-0.17478 -0.56675,0.17478 -0.74153,0 -0.17478,-0.17478 0.11055,-0.52044 0,-0.74152 -0.45815,-0.91631 -0.71592,-0.74153 -1.48305,-0.74153"
         inkscape:path-effect="#path-effect4796"
         inkscape:connector-curvature="0"
         id="path4794"
         d="m 268.43222,157.98728 c -0.31325,0.41767 -1.25159,-0.28176 -3.06989,-1.06728 -0.64478,-0.27936 -1.36611,-0.40624 -2.40151,-0.49483 0,0 -1e-5,0 -1e-5,0 -0.11652,-0.012 -0.46369,0.14634 -1.20232,0.18525 l 0,0 c 0.19806,0.0818 -0.21228,0.18622 -1.48484,-0.10261 l 0,0 c -0.29184,-0.11271 -0.61828,-0.24329 -0.96306,-0.40157 l 0,0 c -0.0668,0.006 -0.31885,-0.12993 -0.7393,-0.47015 l 0,0 -4e-5,-8e-5 0,0 c -0.47832,-1.04103 -0.17271,-2.09952 0.94224,-3.12534 l 0,0 9e-5,-7e-5 0,0 c 0.42252,-0.0535 0.63373,-0.0609 0.615,-0.0489 l 0,0 c 0.41135,-0.21428 0.22384,-0.0438 -0.77499,0.35938 l 0,0 c -0.59033,1.0154 -0.76693,1.64068 -0.45401,1.91631 l 0,0 c 0.36385,0.33496 0.57917,0.50335 0.69458,0.44451 -3.8e-4,-2e-5 -3.8e-4,-2e-5 -3.8e-4,-2e-5 0.009,0.008 0.0178,0.0172 0.027,0.0258 0.0218,0.021 0.0437,0.0421 0.0658,0.0633 0,0 1e-5,0 1e-5,0 0.0755,0.0724 0.1528,0.14582 0.23195,0.22024 l 0,0 c -0.24776,0.019 -0.4997,0.0379 -0.75479,0.0567 l 0,0 c -0.24826,0.0183 -0.50045,0.0366 -0.75564,0.0546 l 0,0 c 0.0187,0.001 -0.60146,-0.0375 -0.58278,-0.0363 l 0,0 c -0.11832,-0.0615 -0.23195,-0.11942 -0.3408,-0.17385 -0.0436,-0.0218 -0.0869,-0.0429 -0.12891,-0.0637 -1.48187,-0.84693 -1.73026,-1.32229 -1.01281,-0.59921 1.7426,0.23493 1.41051,0.47173 -0.76398,0.045 -1.41641,-0.99112 -1.6003,-1.44761 -0.77116,-0.68226 0.65417,0.10842 0.84485,0.30071 0.39352,0.25686 -0.30977,0.23589 -1.20851,0.29578 -2.67721,-0.13868 0,0 -5e-5,-7e-5 -5e-5,-7e-5 -1.57097,-2.18828 -1.94511,-3.35229 -1.24748,-3.26472 0,0 2e-5,0 2e-5,0 -0.36259,-0.46501 -0.1085,0.18324 0.59055,2.10259 2.07591,0.59008 2.46602,1.05484 0.99311,0.75945 -0.48705,0.0255 -0.98145,0.0507 -1.48305,0.0756 -2.10204,0.10428 -4.33044,0.20295 -6.67373,0.29546 -0.96931,0.0383 -1.95828,0.0755 -2.9661,0.11161 8e-5,0 -0.7416,0.0263 -0.74152,0.0263 -1.10478,0.13086 -1.01574,-0.0663 0.61314,-0.29379 1.22761,-1.03421 1.10938,-0.58629 -0.7256,0.77343 -2.68453,0.52877 -3.13061,0.4053 -1.13498,0.18964 0.28129,-0.15344 -0.11758,0.24227 -1.46653,0.79095 0,0 -6e-5,1e-5 -6e-5,1e-5 -2.99858,0.61067 -3.02306,0.12685 0.5028,-0.74225 0,0 7e-5,-2e-5 7e-5,-2e-5 0.92985,-2.26352 1.25429,-3.17615 0.79747,-2.80332 0.53877,-0.12599 0.33812,1.08231 -0.78124,3.56101 0,0 -1e-4,4e-5 -1e-4,4e-5 -2.46364,1.12034 -3.69374,1.34049 -3.56765,0.80288 -0.37591,0.46638 0.53127,0.15529 2.84201,-0.78713 0.92041,-1.97385 1.23872,-2.86401 0.8211,-2.7341 0,0 1e-5,0 1e-5,0 0.24986,-0.13273 0.22711,0.7555 -0.20056,2.65087 0,0 -1e-5,7e-5 -1e-5,7e-5 -1.55198,2.24304 -2.43146,2.52764 -1.43249,1.50833 0,0 1e-5,-1e-5 1e-5,-1e-5 0.32067,-1.68023 0.45497,-2.31401 0.27335,-1.91966 0,0 2e-5,0 2e-5,0 0.4963,0.1079 0.24939,1.30617 -0.87548,3.52949 0,0 -5e-5,10e-5 -5e-5,10e-5 -2.15122,1.5777 -2.82951,1.53603 -1.45419,0.77042 0.98869,-2.4017 1.32669,-3.37378 0.84081,-2.9866 0.56669,-0.13996 0.34933,1.1301 -0.82796,3.74097 l 0,0 c 0,0 -1.2e-4,5e-5 -1.2e-4,5e-5 -2.59838,1.17777 -3.88621,1.41088 -3.74614,0.84506 0,0 1e-5,-2e-5 1e-5,-2e-5 l 0,0 c 0,0 -1e-5,0 -1e-5,0 -0.22086,0.10887 0.90281,-0.59755 3.51227,-1.98398 0,0 0,0 0,0 0.005,-0.026 0.0229,-0.0448 0.0356,-0.0672 0.0326,-0.0573 0.0663,-0.11367 0.1001,-0.16922 0.11771,-0.19349 0.23758,-0.37658 0.35765,-0.54926 0.005,0.29527 0.0136,0.59991 0.0221,0.91793 0.0138,0.49319 0.0333,1.03163 0.0437,1.59203 0.01,0.59298 -0.0174,1.01222 -0.0246,1.26467 -5.3e-4,0.22613 -0.002,0.39782 0.008,0.51226 0.009,0.0607 0.003,0.0147 -0.011,-0.13936 0.81667,0.59914 0.18333,-0.22827 -1.85864,-2.53479 -2.39916,-0.25428 -1.94495,-0.70484 1.03438,-0.21505 2.95495,1.9621 3.00782,2.46481 0.7473,0.72416 0,0 -4e-5,-3e-5 -4e-5,-3e-5 -1.77584,-0.12536 -1.22545,-0.44825 1.49066,-0.0228 0,0 4e-5,1e-5 4e-5,1e-5 2.90217,2.04226 2.50006,2.34064 0.12233,0.63608 0.45877,1.11685 0.91894,2.24636 1.38072,3.38829 0.90786,1.55489 1.91011,1.70766 3.11426,0.45597 -1.52424,-3.29883 -1.67413,-4.35741 -1.15949,-2.85513 0,0 -5e-5,-1e-5 -5e-5,-1e-5 -1.91909,-0.29638 -2.21807,-0.54263 -0.87584,-0.39125 0,0 3e-5,0 3e-5,0 -0.25863,-0.0781 0.6102,-0.18471 2.63532,0.1693 0,0 2e-5,0 2e-5,0 1.87829,1.04982 2.7348,1.89701 2.67561,2.26727 0.43207,0.1402 -0.0851,-0.0579 -1.45554,-0.88468 -0.38351,-0.0434 -0.36335,-0.1003 0.1208,-0.0504 0.43429,0.003 0.89928,-0.008 1.39964,-0.0211 0,0 0,0 0,0 0.8259,-0.0232 1.75107,-0.074 2.78091,-0.0816 0,0 1e-5,0 1e-5,0 -0.55132,-0.0804 0.1286,-0.0924 1.9167,0.18582 1.48814,0.58704 1.93002,0.97892 1.48613,0.73225 -1.32552,-0.12565 -1.48101,-0.27109 -0.43672,-0.1951 -0.001,1e-5 1.48405,-0.007 1.48305,-0.007 1.47207,-0.006 2.95548,-0.0101 4.44915,-0.0123 -2.6e-4,0 0.74178,-9.4e-4 0.74152,-9.4e-4 -0.87183,-0.15966 -0.0388,-0.13856 2.41842,0.39522 0.27816,0.12238 0.73657,0.36475 1.3439,0.77371 0.0752,0.45937 0.24283,1.03682 0.49904,1.73569 0.1502,0.4097 0.33079,0.86104 0.54093,1.35464 -0.68545,0.70195 -1.26032,1.32407 -1.75661,1.84804 -1.41751,1.49659 -1.98722,2.16916 -1.61977,2.13331 l 0,0 c -0.37689,-0.0161 -0.63105,-0.0414 -0.76317,-0.0624 0,0 -10e-6,0 -10e-6,0 l 0,0 c 0,0 0,-8e-5 0,-8e-5 0.009,-1.20982 0.31554,-2.41187 0.91618,-3.58114 l 0,0 c -0.0192,-0.0276 -0.0549,-0.0572 -0.0517,-0.0696 0.006,-0.023 0.0389,-0.0675 0.0619,-0.10553 0.57861,-0.95573 1.45766,-1.92646 2.56162,-2.74397 l 0,0 c -1.46294,-0.021 -0.78494,-0.46515 1.94707,-0.0745 l 0,0 0,0 0,0 c 0.35974,0.0583 1.11709,0.23475 2.20459,0.69162 l 0,0 c 0,0 0,-9e-5 0,-9e-5 0.0231,-0.86314 0.81924,0.1907 2.29022,3.19392 l -1.4e-4,8e-5 c -0.85973,2.97593 -1.44771,4.13489 -1.70626,3.49033 l 0,0 c 0.32423,0.707 0.70485,-0.58838 1.31938,-3.86961 0,0 4e-5,-2e-4 4e-5,-2e-4 l 0,0 c -1.48301,-2.01592 -1.71225,-2.66786 -1.12387,-1.72729 l 0,0 c 0,0 -8e-5,-1e-5 -8e-5,-1e-5 -3.09927,-0.44867 -2.82259,-0.6767 0.73957,0.004 0,0 9e-5,2e-5 9e-5,2e-5 l 0,0 c 2.17977,1.61666 2.29473,2.04954 0.73869,0.74726 l 0,0 -9e-5,-2e-5 0,0 c -1.92018,-0.36666 -2.64463,-0.50518 -2.21614,-0.29218 0,0 0,-3e-5 0,-3e-5 0.10778,-0.55203 1.4451,-0.25956 3.9199,0.99186 l 0,0 c 1.69513,2.36137 1.64969,3.0678 0.73283,1.4917 l 0,0 c -2.29655,-1.0728 -3.3323,-1.42285 -3.19992,-0.93518 l 0,0 c -0.1706,-0.27768 0.83688,-0.23576 2.97727,0.2478 l 0,0 c 0.7809,0.47714 1.08284,0.69666 0.92173,0.63587 l 0,0 c 0.15145,0.13424 0.27463,0.24946 0.37174,0.34315 l 0,0 10e-6,1e-5 0,0 c 0.28603,0.27367 0.55369,0.54097 0.80577,0.79786 l 0,0 c 0.25384,0.25795 0.51618,0.52965 0.78406,0.81875 0.0922,0.0988 0.20556,0.2233 0.33755,0.3756 -0.0609,-0.15886 0.15706,0.14307 0.62905,0.91771 0.66525,3.49761 0.43653,3.79392 -0.007,0.7452 0.14081,0.28702 0.25587,0.52698 0.35862,0.71639 0,0 1e-5,1e-5 1e-5,1e-5 0.1954,0.24181 0.066,0.11713 -0.34862,-0.41426 -2.05083,-0.88785 -4.07345,-0.26119 -6.11754,1.87603 -0.0534,0.63182 -0.0796,0.80912 -0.0503,0.53786 -0.42143,0.27624 -0.1442,-0.80324 1.02173,-3.10727 2.15779,-1.32167 3.63443,-1.60287 4.37053,-0.8969 0.96765,0.53331 1.46789,0.92307 1.53838,1.10519 0,0 6e-5,1.2e-4 6e-5,1.2e-4 1.22299,2.42148 1.50033,3.72241 0.96092,3.82973 0,0 -3e-5,0 -3e-5,0 0.20409,0.42022 0.0642,-0.28574 -0.29191,-2.14324 0,0 -2e-5,-2e-5 -2e-5,-2e-5 -1.25597,-1.48675 -0.83954,-1.38144 0.72861,0.7479 0,0 3e-5,3e-5 3e-5,3e-5 0.51218,2.36093 0.52619,3.17854 0.36885,2.34911 -1e-5,2.1e-4 -0.0109,0.74131 -0.0109,0.74152 -0.0186,1.24942 -0.0387,2.48558 -0.06,3.70763 0,0 0,1e-5 0,1e-5 -3e-5,0.002 -0.0407,2.22287 -0.0407,2.22455 0,0 0,1e-5 0,1e-5 0.41489,-1.38373 0.24621,-0.24237 -1.0276,3.1863 -2.31889,1.17209 -3.56645,1.43349 -3.67397,0.91637 0,0 -2e-5,0 -2e-5,0 -0.40662,0.19239 0.26194,0.0553 2.02705,-0.28247 0.441,-0.41621 0.54299,-0.3351 0.0755,0.079 0,0 -10e-6,0 -10e-6,0 -0.20409,0.43761 -0.94256,1.21787 -2.3306,2.08458 -3.16863,0.66521 -3.87558,0.32974 -1.93618,0.14951 1.85686,-1.46571 1.94517,-1.08789 -0.31589,0.537 0,0 -7e-5,1e-5 -7e-5,1e-5 -3.17955,0.6076 -3.48023,0.37594 -0.75012,-0.0172 0,0 6e-5,-1e-5 6e-5,-1e-5 1.32375,-1.13378 1.21382,-0.71936 -0.75391,0.71686 -2.71171,0.52113 -3.17974,0.41917 -1.41506,0.2277 -0.97393,0.17346 -2.48554,0.95055 -4.62653,1.38184 -1.14053,0.16807 -1.97799,0.12654 -2.49976,0.0621 -0.72162,-0.0421 -1.32223,-0.1066 -1.81731,-0.12652 -0.94316,0.0173 -1.27424,-0.15174 -0.77278,-0.14182 0.64808,-0.36039 0.18558,0.11168 -1.4986,0.67935 0,0 -1e-5,0 -1e-5,0 -1.26793,0.22544 -2.12252,0.15793 -2.55326,0.0739 -0.72788,-0.0472 -1.33782,-0.11835 -1.84907,-0.14448 -2.6521,-0.11866 -5.13042,-0.24573 -7.41526,-0.38029 -0.47142,-0.69132 -0.95867,-1.35842 -1.45806,-2.00692 l 0,0 c -0.1546,0.12368 -0.3192,0.2416 -0.42364,0.33372 -0.12941,0.11414 -0.2341,0.21927 -0.32377,0.30396 -0.40408,0.38167 -0.48402,0.39143 -0.29279,0.20847 0.37822,0.27556 0.34926,0.341 0.028,0.0657 0.80089,0.12964 0.98657,0.22886 0.69409,0.1367 -0.20794,0.16804 -0.96306,0.14156 -2.13229,-0.22636 -0.12931,0.28589 -0.90531,-0.33554 -1.81418,-1.90931 0,0 0,-6e-5 0,-6e-5 0.29866,-1.96908 0.69578,-2.76448 1.01308,-2.47333 -0.0866,-0.38039 -0.33431,0.2127 -0.7968,1.74454 0.78894,1.52094 1.09099,2.02915 1.01851,1.52577 -0.14616,-0.13833 -0.59082,-0.2462 -1.15511,-0.44613 0.70451,-0.0206 -0.12179,0.21184 -1.80735,-0.25603 -1.1731,-1.6305 -1.36428,-2.46412 -0.85724,-2.43417 -0.22365,-0.35896 0.007,0.0717 0.45723,1.31597 1.00129,0.43008 1.36424,0.58198 1.23658,0.3745 2.2e-4,0.13138 -0.54022,0.12104 -1.51234,-0.12939 -1.01919,-0.75434 -1.22864,-1.30929 -0.69214,-0.84025 0,0 1e-5,0 1e-5,0 0.70894,0.099 0.882,0.16396 0.63759,0.0893 -0.12083,0.2234 -0.7428,0.0992 -1.70237,-0.42756 0,0 -10e-6,-2e-5 -10e-6,-2e-5 -0.53903,-1.16096 -0.56011,-1.73856 -0.3017,-1.75211 -0.15645,-0.22328 0.0339,0.0876 0.36862,0.9437 0.89988,0.31911 1.14175,0.44808 0.91466,0.27434 -0.0323,0.22404 -0.63405,0.13161 -1.58314,-0.34735 -0.47519,-1.01952 -0.47105,-1.52298 -0.24371,-1.55117 -0.12528,-0.2133 0.0609,0.0468 0.32461,0.72874 0.73996,0.24596 0.90484,0.35154 0.69298,0.20865 -0.0532,0.18612 -0.58577,0.0998 -1.34287,-0.30029 -0.38335,-0.74086 -0.37389,-1.14418 -0.20457,-1.24938 1e-4,-0.21893 0.10868,-0.082 0.16069,0.19371 -0.16137,-0.32878 -0.0596,-0.5133 -0.0801,-0.54855 -0.10319,-0.28585 -0.68683,-0.36387 -0.68683,-0.55103 0,-0.0536 0.19654,-0.55257 1.02795,-0.49674 0.49489,0.13197 0.97407,0.49255 1.17118,0.88022 0.16831,0.51915 0.18535,0.9012 0.11251,0.96996 0.11535,0.12879 0.0432,0.0103 -0.15639,-0.54259 -0.58121,-0.2234 -0.80558,-0.40433 -0.60134,-0.30029 0.0363,-0.20926 0.49565,-0.22966 1.43451,0.20865 0.44203,0.85958 0.53082,1.42837 0.32461,1.47027 0.15889,0.21967 0.0409,0.0144 -0.24371,-0.80964 -0.7704,-0.29968 -1.06316,-0.49121 -0.84161,-0.34735 0.0206,-0.24359 0.56305,-0.2342 1.65617,0.27434 0.51225,1.02927 0.60882,1.66147 0.36863,1.68522 0.18755,0.23408 0.0487,-0.0413 -0.30171,-1.01059 0,0 -1e-5,-2e-5 -1e-5,-2e-5 -0.78906,-0.35504 -1.117,-0.53619 -0.99557,-0.37937 0.008,-0.14003 0.46434,-0.1782 1.41384,0.0411 0,0 2e-5,0 2e-5,0 1.03888,0.67955 1.27284,1.15684 0.79092,0.64281 -0.75129,-0.13573 -0.98266,-0.23694 -0.73609,-0.17757 0.10991,-0.26794 0.76379,-0.185 1.94339,0.42268 0.64164,1.43119 0.7387,2.20445 0.42249,2.10568 0.43254,0.26812 0.1213,-0.22703 -0.8225,-1.74084 -1.01186,-0.0416 -0.36008,-0.46138 1.15876,-0.25603 0.42409,0.048 1.08544,0.137 1.92534,0.45465 0.0406,-0.45006 0.50081,0.10729 1.30046,1.75403 -0.45582,1.61163 -0.79163,2.25747 -0.94504,1.92195 0.13695,0.41478 0.29298,-0.22417 0.65197,-1.97935 0,0 1e-5,-6e-5 1e-5,-6e-5 -0.64568,-0.83405 -0.78765,-1.4359 -0.21811,-0.74362 -0.84849,-0.17001 -0.81602,-0.2613 -0.64924,-0.22636 0.19456,-0.19494 0.92082,-0.22079 2.17714,0.1367 0.22737,0.004 0.77567,0.3025 1.54862,1.07055 0.3058,-0.0745 0.24389,0.15726 -0.26017,0.63236 -0.11675,0.11004 -0.25723,0.23042 -0.41143,0.37223 -0.12432,0.11433 -0.2137,0.22285 -0.33845,0.34573 l 0,0 c -0.0321,-0.6612 -0.0472,-1.34131 -0.0427,-2.0329 2.28484,-0.13456 4.76316,-0.26163 7.41526,-0.38029 0.75478,-0.0261 1.42909,-0.01 2.00578,-0.0203 0.7382,-0.052 1.11058,0.0157 1.00712,-0.0503 0,0 0,0 0,0 -0.65354,0.31838 -0.23389,-0.18417 1.4675,-0.80369 1.4116,-0.22961 2.17796,-0.16143 2.19332,-0.14182 0.76233,-0.0199 1.4321,0.002 1.9961,-0.003 0.66486,-0.0298 1.05479,0.007 1.10209,-0.0616 0.85638,-0.16819 2.13954,-0.98118 4.27179,-1.58428 2.35918,-0.32799 2.22001,-0.0536 0.068,0.2277 -1.34109,1.12594 -1.22517,0.6833 0.72915,-0.76618 0,0 7e-5,-1e-5 7e-5,-1e-5 3.1805,-0.62079 3.45873,-0.39796 0.7329,-0.0172 0,0 -6e-5,1e-5 -6e-5,1e-5 -1.6086,1.29635 -1.38451,0.76003 1.16717,-0.94606 2.90577,-0.50246 3.27476,-0.0635 1.02992,0.14951 -0.42902,0.38051 -0.55795,0.29136 -0.10604,-0.13999 0,0 0,0 0,0 0.18243,-0.44335 0.88938,-1.23641 2.30008,-2.1456 2.00145,-0.45607 2.95354,-0.49434 2.8033,-0.2343 0,0 -10e-6,1e-5 -10e-6,1e-5 0.1319,-0.45451 -0.82387,-0.12838 -2.96717,0.86819 -0.90879,3.0569 -1.44465,3.61171 -1.0276,1.70324 0,0 0,-1e-5 0,-1e-5 3e-5,0.002 -0.0407,-2.22622 -0.0407,-2.22455 0,0 0,-1e-5 0,-1e-5 -0.0214,-1.22205 -0.0414,-2.45821 -0.06,-3.70763 0,2.1e-4 -0.0109,-0.74173 -0.0109,-0.74152 -0.15356,-1.30578 0.0769,-1.06938 0.36885,0.86605 0,0 2e-5,2e-5 2e-5,2e-5 1.25446,1.49894 0.81855,1.38442 -0.75443,-0.73514 0,0 -3e-5,-3e-5 -3e-5,-3e-5 -0.47447,-2.09404 -0.51536,-3.08332 -0.24372,-2.9195 0,0 -3e-5,0 -3e-5,0 -0.47673,-0.13217 -0.13481,0.87695 0.91274,3.12294 0,0 5e-5,1.1e-4 5e-5,1.1e-4 -0.19486,-0.083 0.0331,0.032 0.65651,0.41364 0.59072,0.64195 1.8775,0.3402 3.9284,-0.86363 0.91748,-2.03079 1.27664,-2.67322 0.86927,-2.02664 0.0348,-0.11548 0.0265,0.21957 -0.0542,1.00481 -2.05807,2.21409 -4.16435,2.85157 -6.26948,1.90777 -0.60525,-0.72766 -0.85711,-1.11048 -0.79485,-1.10839 0,0 0,0 0,0 -0.20936,-0.37106 -0.3816,-0.70412 -0.52901,-0.99355 -0.67155,-3.50263 -0.44485,-3.77974 -0.007,-0.73786 0.41602,0.66261 0.54086,0.8749 0.39753,0.62155 -0.0274,-0.0306 -0.0794,-0.0837 -0.15377,-0.16186 -0.1987,-0.20652 -0.4141,-0.42047 -0.64381,-0.64606 l 0,0 c -0.22876,-0.22396 -0.44769,-0.43546 -0.65901,-0.63001 l 0,0 0,0 0,0 c -0.0795,-0.0725 -0.13406,-0.12283 -0.16571,-0.14815 l -1e-5,-1e-5 c -0.25578,-0.14323 -0.0429,-0.0166 0.62561,0.40434 l -2e-5,2e-5 c 1.90373,0.36515 2.62801,0.50615 2.201,0.29597 -0.10715,0.5504 -1.43472,0.26485 -3.90672,-0.98336 l 0,0 c -1.70652,-2.36286 -1.65333,-3.04158 -0.75021,-1.4744 l 0,0 c 2.29976,1.07635 3.3452,1.43264 3.21311,0.94368 0,0 -10e-6,-3e-5 -10e-6,-3e-5 0.17207,0.2801 -0.83469,0.24135 -2.99238,-0.24399 l 0,0 -1.1e-4,-3e-5 0,0 c -2.18787,-1.6173 -2.29056,-2.03506 -0.74435,-0.7358 l 0,0 c 0,0 8e-5,2e-5 8e-5,2e-5 3.10754,0.45244 2.81188,0.68002 -0.74347,0.004 0,0 -9e-5,-10e-6 -9e-5,-10e-6 l 0,0 c -0.01,0.64056 -1.05241,-0.23064 -2.7199,-2.89297 l 0,0 c 0,0 3e-5,-2e-4 3e-5,-2e-4 0.55431,-3.49234 1.1739,-4.94768 1.68049,-4.36358 l 0,0 c -0.19192,-0.68956 -0.69167,0.41718 -1.55803,3.31293 l 0,0 c 1.46057,2.87874 2.09856,3.88145 2.00813,2.96573 0,0 -1e-5,-9e-5 -1e-5,-9e-5 l 0,0 c 0.11791,0.007 -0.19295,-0.007 -0.87588,-0.20916 l 0,0 -10e-6,0 0,0 c 1.26647,0.0262 0.4045,0.42192 -2.50211,-0.0745 l 0,0 c -0.32339,-1.29418 -0.91464,-2.64822 -1.71102,-4.24084 -0.0317,-0.0634 -0.0741,-0.12068 -0.0903,-0.19976 -0.009,-0.0426 0.0211,-0.0682 0.0344,-0.0957 l 0,0 c 0.81206,-1.16863 1.32775,-2.33265 1.54733,-3.5171 0,0 2e-5,-7e-5 2e-5,-7e-5 l 0,0 c 0,0 0,0 0,0 0.13988,0.0118 0.15605,0.0196 0.0534,0.0104 l 0,0 c 0.53868,-0.0315 0.19321,0.68567 -1.12982,2.03923 -0.46332,0.474 -1.07212,1.02918 -1.79412,1.6835 0.17916,0.45297 0.32457,0.86748 0.43702,1.24283 0.19182,0.64029 0.28768,1.16644 0.29179,1.57536 0.0766,0.0321 -0.053,-0.0133 -0.35538,-0.18122 2.019,0.31132 2.29721,0.55324 0.93536,0.39522 -2.6e-4,0 -0.74126,-9.4e-4 -0.74152,-9.4e-4 -1.49367,-0.002 -2.97708,-0.006 -4.44915,-0.0123 -0.001,0 -1.48205,-0.007 -1.48305,-0.007 0.52878,0.0741 -0.10569,0.09 -1.91978,-0.1951 -1.49807,-0.59807 -1.92057,-0.98865 -1.47997,-0.75079 1.34384,0.12435 1.45332,0.26282 0.43364,0.18582 0,0 -1e-5,0 -1e-5,0 -0.78958,-0.008 -1.67298,0.0291 -2.64593,0.0389 0,0 -1e-5,0 -1e-5,0 -0.52407,0.006 -1.07654,0.008 -1.65986,-0.006 -0.16361,0.0379 -0.76448,0.0123 -1.77417,-0.18595 -2.06312,-1.00042 -3.00199,-1.86947 -2.94984,-2.32909 -0.44449,-0.24105 0.007,-0.0769 1.20381,0.74558 0,0 1e-5,0 1e-5,0 1.03971,0.0357 0.95693,0.25143 -0.33077,0.1693 0,0 2e-5,0 2e-5,0 0.8232,0.14891 0.0244,0.13203 -2.35888,-0.39125 0,0 -6e-5,-1e-5 -6e-5,-1e-5 -0.12073,1.1872 -1.29714,-0.13765 -2.76913,-4.13871 1.2171,-1.4281 2.41933,-1.37186 3.50065,0.15002 -0.61833,1.17758 -1.23334,2.34257 -1.84517,3.49476 -3.19375,-2.02737 -3.44936,-2.5703 -1.36073,-0.84698 0,0 2e-5,1e-5 2e-5,1e-5 1.76535,0.10995 1.24217,0.41941 -1.47544,-0.0228 0,0 -5e-5,-4e-5 -5e-5,-4e-5 -2.94326,-1.96902 -3.0106,-2.49675 -0.73573,-0.75887 2.06559,0.17702 1.31675,0.48324 -1.93172,-0.21505 -2.10976,-2.34046 -2.73509,-3.2691 -1.92895,-2.74494 -0.0358,-0.31358 -0.048,-0.52053 -0.044,-0.62057 -0.004,-0.36326 0.006,-0.66962 0.0193,-0.91891 0.0157,-0.52827 0.0574,-0.88006 0.0673,-1.06196 0.0105,-0.49059 0.013,-1.00988 0.0214,-1.55588 0.005,-0.32158 0.0105,-0.65098 0.0193,-0.99081 0.12115,-0.38142 0.24245,-0.77341 0.36568,-1.17508 0.0354,-0.11537 0.0708,-0.23148 0.10739,-0.34845 0.0143,-0.0457 0.0237,-0.0951 0.0454,-0.13767 0,0 1e-5,0 1e-5,0 2.78951,-1.56834 4.23081,-2.17119 4.25378,-1.98399 0,0 0,10e-6 0,10e-6 l 0,0 c 0,0 2e-5,-2e-5 2e-5,-2e-5 0.38855,-0.48872 -0.58937,-0.1494 -3.00464,0.84507 0,0 -1.1e-4,4e-5 -1.1e-4,4e-5 l 0,0 c -0.99311,2.42648 -1.31858,3.38758 -0.82796,2.99945 -0.56299,0.1387 -0.33119,-1.14332 0.84081,-3.72812 2.16786,-1.55525 2.88559,-1.50546 1.51191,-0.71264 0,0 -4e-5,9e-5 -4e-5,9e-5 -0.94929,2.04766 -1.26106,2.95415 -0.8273,2.8227 0,0 2e-5,0 2e-5,0 -0.24935,0.138 -0.21374,-0.77952 0.22516,-2.6959 0,0 1e-5,-2e-5 1e-5,-2e-5 1.61017,-2.25841 2.49165,-2.48199 1.53363,-1.45776 0,0 -1e-5,6e-5 -1e-5,6e-5 -0.3088,1.65726 -0.43177,2.26379 -0.24873,1.87463 0,0 0,-2e-5 0,-2e-5 -0.48093,-0.11018 -0.22598,-1.29228 0.86928,-3.44089 2.49528,-1.1267 3.71131,-1.32946 3.58353,-0.78713 0.37461,-0.46039 -0.54543,-0.13425 -2.82612,0.80289 0,0 -9e-5,3e-5 -9e-5,3e-5 -0.93506,2.29413 -1.24408,3.1936 -0.78125,2.81948 -0.53406,0.12432 -0.31557,-1.0984 0.79748,-3.54483 0,0 8e-5,-2e-5 8e-5,-2e-5 3.84387,-1.2242 4.54522,-1.19953 1.98582,-0.74225 0,0 -5e-5,1e-5 -5e-5,1e-5 -0.28885,0.1953 0.17669,-0.19149 1.49957,-0.69211 2.39816,-0.36411 2.66153,-0.12505 0.34808,0.18964 -1.20649,1.04528 -1.09349,0.63193 0.75744,-0.70963 1.95235,-0.42778 2.82906,-0.44811 2.0962,-0.29379 8e-5,0 0.74144,0.0263 0.74152,0.0263 1.00782,0.0361 1.99679,0.0733 2.9661,0.11161 2.34329,0.0925 4.57169,0.19118 6.67373,0.29546 0.5016,0.0249 0.996,0.0501 1.48305,0.0756 -0.89372,-0.27939 -0.02,-0.2112 2.47617,0.75945 0.89647,2.11803 1.00323,3.09407 0.55583,2.8923 0,0 2e-5,1e-5 2e-5,1e-5 0.61664,0.32701 0.13487,-0.49392 -1.21277,-2.57138 0,0 -4e-5,-7e-5 -4e-5,-7e-5 -0.76034,-0.0892 -0.89444,-0.22553 -0.45264,-0.13868 0.33195,-0.2017 1.26564,-0.19046 2.61809,0.25686 1.41728,1.04649 1.55503,1.52341 0.7119,0.8008 -1.7353,-0.20384 -1.45136,-0.41532 0.71906,0.045 1.09075,0.8362 1.56137,1.72004 0.47062,0.88384 -0.0255,-0.0236 -0.0426,-0.0398 -0.0685,-0.0635 -0.0597,-0.0543 -0.12426,-0.11228 -0.19357,-0.17372 l 0,0 c -0.027,-0.0123 -0.0525,-0.0244 -0.0766,-0.0362 l 0,0 c 0.25483,0.018 0.50604,0.036 0.75475,0.0542 l 0,0 c 0.25532,0.0187 0.50689,0.0374 0.75561,0.0563 l 0,0 c 0.24868,0.0744 0.49472,0.1478 0.7381,0.22026 0,0 1e-5,1e-5 1e-5,1e-5 0.0449,0.0134 0.1681,0.05 0.21303,0.0634 0.0289,0.009 0.0583,0.0172 0.0871,0.026 0,0 0,0 0,0 0.38545,0.20988 0.87259,0.65119 1.38652,1.3264 0.3776,0.42212 0.22019,1.2368 -0.48728,2.35844 l 0,0 c -1.27794,0.65606 -1.90015,0.73735 -1.85561,0.51185 l 0,0 c -0.17652,0.006 -0.12089,-0.0189 0.14786,-0.0449 h 0 c 0,0 8e-5,-8e-5 8e-5,-8e-5 1.038,-1.01197 1.33328,-1.98662 0.91069,-2.97362 l 0,0 -4e-5,-7e-5 0,0 c -0.21856,-0.14505 -0.21854,-0.16467 -0.0452,-0.0239 l 0,0 c 0.22518,0.15899 0.4839,0.3214 0.74688,0.48606 l 0,0 c -0.73009,-0.0507 -0.77336,-0.20077 -0.002,-0.10261 l 0,0 c 0.30245,0.0389 0.95758,0.0128 1.76378,0.18525 0,0 0,0 0,0 1.22402,0.3614 2.23239,0.90526 3.00231,1.56956 1.61446,1.4735 2.03726,2.6277 1.90764,2.80053 z"
         style="fill:#000000;stroke:none;stroke-width:0.75px;stroke-linecap:butt;stroke-linejoin:miter;stroke-opacity:1" />
    </g>
  </g>
  <g
     inkscape:groupmode="layer"
     id="layer2"
     inkscape:label="Layer 1"
     style="display:inline"
     transform="translate(-71.927979,-62.288128)" />
  <g
     inkscape:groupmode="layer"
     id="layer3"
     inkscape:label="Layer 2"
     style="display:inline"
     transform="translate(-71.927979,-62.288128)" />
  <g
     inkscape:groupmode="layer"
     id="layer5"
     inkscape:label="Layer 4"
     transform="translate(-71.927979,-62.288128)" />
  <g
     inkscape:groupmode="layer"
     id="layer4"
     inkscape:label="Layer 3"
     style="display:inline"
     transform="translate(-71.927979,-62.288128)">
    <g
       id="g4730"
       transform="matrix(1.40625,0,0,1.4062498,55.141322,-33.399457)">
      <path
         inkscape:connector-curvature="0"
         id="path50"
         d="m 39.141475,137.02161 c -1.434547,-0.15831 -1.937571,-0.24225 -2.845728,-0.47491 -4.500172,-1.15287 -8.601404,-3.88547 -11.364856,-7.57226 -2.88308,-3.84639 -4.278227,-8.48974 -4.00265,-13.32169 0.240339,-4.21407 1.547513,-7.79358 4.100384,-11.22832 0.771033,-1.03739 2.845443,-3.10378 3.926121,-3.91096 3.155687,-2.357032 6.980581,-3.841788 10.365148,-4.023564 1.373943,-0.07379 4.003016,0.0056 5.115295,0.154534 2.955303,0.395624 6.437276,1.901291 9.084014,3.92809 3.397072,2.60138 5.947608,6.35211 7.154327,10.52089 0.50574,1.74716 0.690563,2.95117 0.737684,4.80563 0.06395,2.51646 -0.126459,4.30881 -0.667902,6.28717 -1.509077,5.51398 -5.353151,10.21145 -10.456359,12.77771 -1.610828,0.81004 -3.291571,1.38998 -5.313077,1.83329 -0.941349,0.20644 -1.129455,0.22005 -3.275732,0.23713 -1.252369,0.01 -2.40287,0.004 -2.556669,-0.0127 z m 10.182084,-5.7317 c 1.68831,-0.63417 2.865952,-2.61608 2.610104,-4.39268 -0.194232,-1.34876 -1.001132,-2.47309 -2.20096,-3.06682 -1.61297,-0.79816 -3.413568,-0.55663 -4.689179,0.62902 l -0.490228,0.45565 -0.648591,-0.34321 c -1.23524,-0.65365 -2.608444,-1.49121 -2.582011,-1.57484 0.04372,-0.13834 1.490016,-0.92076 5.408892,-2.92612 2.043338,-1.04561 3.958947,-2.05603 4.256912,-2.24536 0.643086,-0.40864 0.811957,-0.67758 0.753337,-1.19971 -0.07375,-0.65687 -0.143024,-0.69918 -5.998715,-3.66329 l -4.463938,-2.25961 1.62048,-0.92854 1.620481,-0.92854 0.469753,0.42678 c 1.653168,1.50192 4.027569,1.5723 5.565869,0.16496 1.104611,-1.01057 1.615237,-2.46711 1.335677,-3.81001 -0.182913,-0.87867 -0.542355,-1.55292 -1.159217,-2.17448 -0.586835,-0.59132 -1.070915,-0.86986 -1.848554,-1.06367 -1.444625,-0.36005 -2.804642,0.0277 -3.876471,1.10516 -0.959906,0.96496 -1.270631,1.86358 -1.177136,3.40428 l 0.04734,0.78011 -1.966912,1.13999 c -1.081801,0.627 -2.001122,1.13999 -2.042936,1.13999 -0.04181,0 -0.860455,-0.38916 -1.819205,-0.86481 -2.397199,-1.18927 -2.868617,-1.32277 -3.433476,-0.97229 -0.526744,0.32683 -0.543832,0.41552 -0.573133,2.97525 l -0.02635,2.30121 -1.05486,0.60644 c -0.580173,0.33353 -1.086918,0.60643 -1.126099,0.60643 -0.03918,0 -0.330691,-0.25257 -0.647802,-0.56127 -1.240877,-1.20795 -2.839396,-1.56016 -4.35638,-0.95987 -0.884816,0.35014 -1.841191,1.26467 -2.260102,2.16122 -0.208727,0.44672 -0.249066,0.63891 -0.276651,1.31805 -0.03778,0.93008 0.06796,1.49519 0.405887,2.16919 0.629788,1.25613 1.685985,2.00845 3.102934,2.2102 1.260334,0.17945 2.364923,-0.20755 3.451182,-1.20914 l 0.620945,-0.57255 1.076022,0.62973 1.076021,0.62973 0.0043,1.92506 c 0.0024,1.05878 0.0353,2.08639 0.0732,2.28358 0.07668,0.39902 0.476972,0.8398 0.847431,0.93315 0.370253,0.0933 1.141996,-0.18763 2.918981,-1.06255 l 1.725028,-0.84934 2.139309,1.23253 2.139308,1.23254 -0.04881,0.88743 c -0.03692,0.67124 -0.01873,1.00335 0.07463,1.36323 0.381737,1.47136 1.753079,2.83966 3.086153,3.0793 0.653997,0.11757 1.806579,0.0379 2.337534,-0.16151 z"
         style="opacity:0;fill:#000080;stroke-width:0.08005322" />
      <ellipse
         ry="20.931404"
         rx="20.885115"
         cy="117.44099"
         cx="41.103172"
         id="path3732"
         style="display:inline;opacity:1;fill:#ffffff;fill-opacity:1;stroke:none;stroke-width:0.10777449;stroke-opacity:1" />
      <path
         inkscape:connector-curvature="0"
         id="path3791"
         d="m 39.240339,137.70612 c -2.412857,-0.16457 -4.575697,-0.77287 -6.990785,-1.96615 -2.20631,-1.09013 -3.835258,-2.25564 -5.550723,-3.97154 -2.669504,-2.67017 -4.419298,-5.76289 -5.305258,-9.3769 -0.402822,-1.6432 -0.531943,-2.61975 -0.583306,-4.4116 -0.09889,-3.44988 0.587899,-6.60945 2.095522,-9.64046 2.36497,-4.75466 6.307995,-8.274 11.381111,-10.158186 1.117743,-0.415137 2.665496,-0.832376 3.635263,-0.979985 1.532348,-0.23324 5.341572,-0.167403 6.966355,0.120404 3.465828,0.613921 7.147509,2.441693 9.852166,4.891117 3.560295,3.22431 6.036639,7.98253 6.544761,12.57557 0.12182,1.10114 0.103859,4.24764 -0.03056,5.35724 -0.950598,7.84599 -6.77169,14.62932 -14.47994,16.87348 -2.412887,0.70248 -4.507525,0.89347 -7.534591,0.68701 z m 9.70612,-5.78467 c 1.150955,-0.29405 2.290406,-1.44552 2.683687,-2.712 0.219513,-0.70689 0.218125,-1.71523 -0.0031,-2.35974 -0.42876,-1.24833 -1.589378,-2.32646 -2.808102,-2.60853 -0.192704,-0.0446 -0.727878,-0.0811 -1.189277,-0.0811 -0.689841,-4e-5 -0.917333,0.0323 -1.280265,0.18225 -0.491581,0.20305 -1.070543,0.58237 -1.543157,1.01103 l -0.312943,0.28384 -0.569033,-0.30586 c -0.922681,-0.49596 -2.76617,-1.6056 -2.76617,-1.66503 0,-0.13761 0.603668,-0.4695 5.750169,-3.1614 2.085998,-1.09109 3.927684,-2.06933 4.092645,-2.17388 0.410585,-0.26021 0.570285,-0.53298 0.570285,-0.97405 0,-0.6671 -0.0019,-0.66822 -6.338408,-3.90945 -2.131224,-1.09014 -3.910905,-2.01649 -3.954848,-2.05855 -0.05274,-0.0505 -0.03916,-0.10175 0.03995,-0.15082 0.802927,-0.49804 3.020845,-1.75548 3.100229,-1.75766 0.05727,-0.002 0.344897,0.18876 0.639167,0.42298 0.705718,0.56169 0.905098,0.68179 1.436716,0.86541 0.981512,0.33902 2.191931,0.27217 3.103836,-0.17143 0.880075,-0.42812 1.831931,-1.62008 2.104114,-2.63486 0.122601,-0.45711 0.12134,-1.39117 -0.0027,-1.89393 -0.339423,-1.37727 -1.509925,-2.59017 -2.824146,-2.92642 -1.063955,-0.27222 -1.989741,-0.175 -2.877465,0.30216 -0.59192,0.31816 -1.564774,1.32055 -1.846328,1.90237 -0.219571,0.45373 -0.235293,0.55445 -0.274866,1.76073 l -0.04197,1.27947 -1.993073,1.14691 c -1.096191,0.6308 -2.017295,1.14691 -2.046901,1.14691 -0.02961,0 -0.822521,-0.37524 -1.762034,-0.83387 -1.787526,-0.8726 -2.541191,-1.1714 -2.954559,-1.1714 -0.289808,0 -0.641293,0.1902 -0.788359,0.42662 -0.125719,0.2021 -0.229623,1.45703 -0.246925,2.98234 -0.007,0.61762 -0.0358,1.33573 -0.06399,1.5958 l -0.05125,0.47285 -1.038647,0.58709 c -0.571256,0.32289 -1.056624,0.58832 -1.078595,0.58983 -0.02197,0.002 -0.34555,-0.25422 -0.719064,-0.5683 -1.167744,-0.98191 -2.177638,-1.33575 -3.380977,-1.18461 -0.841715,0.10571 -1.491318,0.45939 -2.254578,1.22752 -0.690614,0.69502 -0.945725,1.12366 -1.074511,1.80543 -0.2731,1.44573 0.126586,2.80484 1.110499,3.77621 0.850386,0.83954 1.570335,1.11899 2.883106,1.11908 1.078981,9e-5 1.715902,-0.28621 2.897481,-1.30243 0.33585,-0.28884 0.506043,-0.38426 0.62819,-0.35219 0.09214,0.0242 0.594889,0.28993 1.117209,0.59055 l 0.94967,0.54657 0.0011,0.40105 c 0.0034,1.19676 0.16882,3.92047 0.247451,4.07404 0.156565,0.30581 0.484392,0.60858 0.713686,0.65914 0.33243,0.0733 1.206102,-0.2537 3.010276,-1.12671 l 1.60137,-0.77488 2.146695,1.2419 2.146696,1.2419 0.04138,1.23253 c 0.04022,1.19812 0.04893,1.24813 0.311837,1.79109 0.346775,0.71617 1.281407,1.67702 1.950789,2.00552 0.702962,0.34499 1.884073,0.42408 2.807996,0.18803 z"
         style="display:inline;fill:#4081ec;stroke:none;stroke-width:0.08005321" />
      <path
         inkscape:connector-curvature="0"
         id="path4602"
         d="m 46.907323,109.4787 c -0.719875,-0.2391 -1.21884,-0.66393 -1.569472,-1.33627 -0.162939,-0.31244 -0.188236,-0.47414 -0.188236,-1.20316 0,-0.78185 0.01682,-0.87271 0.23474,-1.26762 0.280363,-0.50808 0.686618,-0.89309 1.260439,-1.19451 0.357645,-0.18786 0.520208,-0.22207 1.061489,-0.22339 0.53815,-10e-4 0.710189,0.0335 1.088545,0.22001 0.530242,0.26142 1.130114,0.8752 1.373503,1.40534 0.25385,0.55293 0.246205,1.6564 -0.01553,2.24143 -0.220836,0.49361 -0.750419,1.01171 -1.273985,1.24636 -0.463673,0.20781 -1.504698,0.26685 -1.971486,0.11181 z"
         style="display:inline;fill:#4081ec;fill-opacity:1;stroke:none;stroke-width:0.08005321" />
      <path
         inkscape:connector-curvature="0"
         id="path4604"
         d="m 27.14361,120.11902 c -0.490458,-0.24353 -0.902489,-0.69782 -1.194256,-1.31673 -0.17046,-0.36159 -0.209853,-0.56342 -0.211935,-1.08584 -0.0041,-1.03409 0.44403,-1.81835 1.352127,-2.36622 0.449495,-0.27118 0.492623,-0.28073 1.267544,-0.28073 0.676855,0 0.860807,0.029 1.177154,0.1854 0.495942,0.24525 0.966517,0.71407 1.240217,1.23558 0.202408,0.38567 0.222451,0.49975 0.222451,1.26608 0,0.75908 -0.02118,0.88251 -0.214582,1.25049 -0.252185,0.47982 -0.672771,0.87331 -1.179536,1.10355 -0.275546,0.12519 -0.566737,0.17132 -1.202498,0.19052 -0.769089,0.0232 -0.873677,0.008 -1.256686,-0.1821 z"
         style="display:inline;fill:#4081ec;fill-opacity:1;stroke:none;stroke-width:0.08005321" />
      <path
         inkscape:connector-curvature="0"
         id="path4608"
         d="m 46.736071,130.51927 c -0.565137,-0.22454 -1.093619,-0.71498 -1.362256,-1.26419 -0.200286,-0.40947 -0.2242,-0.54392 -0.2242,-1.26047 0,-0.93817 0.09261,-1.18532 0.690088,-1.84163 0.622866,-0.68421 1.446554,-0.95216 2.350856,-0.76477 0.883126,0.18301 1.626789,0.72569 1.955422,1.42695 0.243044,0.51862 0.302926,1.51167 0.127659,2.11694 -0.160885,0.55561 -0.663519,1.14084 -1.26119,1.46845 -0.367051,0.20119 -0.528718,0.23759 -1.146376,0.25811 -0.57527,0.0191 -0.801239,-0.009 -1.130003,-0.13939 z"
         style="display:inline;fill:#4081ec;fill-opacity:1;stroke:none;stroke-width:0.08005321" />
      <path
         inkscape:connector-curvature="0"
         id="path4606"
         d="m 32.847422,119.16527 -0.639168,-0.34373 v -1.10858 -1.10857 l 0.679116,-0.38874 c 0.373513,-0.21381 0.7201,-0.38978 0.770195,-0.39105 0.103311,-0.003 0.244357,3.13243 0.156701,3.48305 -0.0703,0.2812 -0.220246,0.25912 -0.966844,-0.14238 z"
         style="display:inline;fill:#4081ec;fill-opacity:1;stroke:none;stroke-width:0.08005321" />
      <path
         inkscape:connector-curvature="0"
         id="path4610"
         d="m 38.077816,141.1892 c -3.827686,-0.52244 -7.369763,-1.85921 -10.366093,-3.91213 -1.271312,-0.87103 -2.22812,-1.67454 -3.501193,-2.9402 -2.03945,-2.02759 -3.45941,-3.99609 -4.688895,-6.50025 -1.088438,-2.21688 -1.79107,-4.4593 -2.173902,-6.93792 -0.214054,-1.38588 -0.294182,-4.36996 -0.156602,-5.8321 0.676539,-7.18998 4.63124,-13.72879 10.761413,-17.793203 3.107497,-2.060326 6.289678,-3.211341 10.395463,-3.760101 2.47032,-0.330172 5.161155,-0.206801 7.945265,0.364281 2.422045,0.496814 5.816226,1.947575 8.149638,3.483368 1.891063,1.24465 4.692412,3.942845 6.199565,5.971265 1.578227,2.12409 3.11456,5.48894 3.863713,8.46224 0.733704,2.91201 0.822732,7.13367 0.21401,10.14851 -0.443477,2.19643 -1.050412,3.95638 -2.087806,6.05408 -3.485429,7.04785 -10.147416,11.91375 -17.963896,13.12078 -1.641444,0.25347 -4.9908,0.28975 -6.59068,0.0714 z m 6.571686,-3.31265 c 6.192008,-1.08686 11.460771,-4.78993 14.60711,-10.26639 1.789297,-3.11441 2.652701,-6.44891 2.651106,-10.23866 -0.0012,-2.69277 -0.372955,-4.9544 -1.174042,-7.14116 -0.707764,-1.93203 -2.175691,-4.50152 -3.425416,-5.99595 -0.732777,-0.87625 -2.77985,-2.85802 -3.574587,-3.46054 -3.772193,-2.859845 -8.540325,-4.384125 -13.25116,-4.236138 -8.352253,0.262381 -15.68497,5.441548 -18.78384,13.267208 -2.719496,6.86762 -1.493136,14.81072 3.180266,20.59845 0.725538,0.89853 2.143607,2.32399 3.113742,3.12997 2.419192,2.00983 5.632718,3.54774 8.790748,4.20704 1.688824,0.35257 2.253931,0.39853 4.534709,0.36876 1.882061,-0.0245 2.320629,-0.0552 3.331364,-0.23259 z"
         style="display:inline;fill:#4081ec;fill-opacity:1;stroke:none;stroke-width:0.08024232" />
    </g>
  </g>
</svg>
