<?xml version="1.0" encoding="UTF-8" standalone="no"?>
<svg
   xmlns:dc="http://purl.org/dc/elements/1.1/"
   xmlns:cc="http://creativecommons.org/ns#"
   xmlns:rdf="http://www.w3.org/1999/02/22-rdf-syntax-ns#"
   xmlns:svg="http://www.w3.org/2000/svg"
   xmlns="http://www.w3.org/2000/svg"
   xmlns:sodipodi="http://sodipodi.sourceforge.net/DTD/sodipodi-0.dtd"
   xmlns:inkscape="http://www.inkscape.org/namespaces/inkscape"
   version="1.0"
   width="350.000000pt"
   height="350.000000pt"
   viewBox="0 0 350.000000 350.000000"
   preserveAspectRatio="xMidYMid meet"
   id="svg18"
   sodipodi:docname="fg.svg"
   inkscape:version="0.92.4 (5da689c313, 2019-01-14)">
  <defs
     id="defs22" />
  <sodipodi:namedview
     pagecolor="#ffffff"
     bordercolor="#666666"
     borderopacity="1"
     objecttolerance="10"
     gridtolerance="10"
     guidetolerance="10"
     inkscape:pageopacity="0"
     inkscape:pageshadow="2"
     inkscape:window-width="1303"
     inkscape:window-height="745"
     id="namedview20"
     showgrid="false"
     inkscape:zoom="1.0114286"
     inkscape:cx="376.15419"
     inkscape:cy="221.51338"
     inkscape:window-x="55"
     inkscape:window-y="-8"
     inkscape:window-maximized="1"
     inkscape:current-layer="layer2" />
  <metadata
     id="metadata2">
Created by potrace 1.15, written by Peter Selinger 2001-2017
<rdf:RDF>
  <cc:Work
     rdf:about="">
    <dc:format>image/svg+xml</dc:format>
    <dc:type
       rdf:resource="http://purl.org/dc/dcmitype/StillImage" />
    <dc:title></dc:title>
  </cc:Work>
</rdf:RDF>
</metadata>
  <path
     style="opacity:0;fill:#000080;stroke-width:0.69911689"
     d="m 215.4999,409.90744 c -12.55278,-1.37983 -16.95441,-2.11151 -24.9011,-4.13933 C 151.22074,395.71971 115.33354,371.9024 91.152372,339.76836 65.92443,306.24327 53.716407,265.77184 56.127803,223.65665 c 2.103044,-36.7298 13.541276,-67.92882 35.879782,-97.866 6.746803,-9.0418 24.898605,-27.052488 34.354915,-34.087828 27.61335,-20.543893 61.0825,-33.485014 90.69863,-35.069371 12.02248,-0.643159 35.02778,0.04911 44.7606,1.346918 25.85993,3.448256 56.32838,16.571631 79.48828,34.237193 29.72554,22.673608 52.04362,55.364898 62.60281,91.699978 4.42542,15.22827 6.04267,25.72237 6.45502,41.88587 0.55954,21.9334 -1.10658,37.55553 -5.84438,54.79889 -13.20496,48.05979 -46.84194,89.00292 -91.49676,111.37036 -14.09531,7.0603 -28.80239,12.1151 -46.49127,15.97897 -8.23713,1.79928 -9.88312,1.91796 -28.66379,2.06683 -10.95866,0.0869 -21.02594,0.0369 -22.37174,-0.11102 z m 89.09676,-49.95748 c 14.77329,-5.52739 25.07807,-22.80175 22.83931,-38.28656 -1.69961,-11.75579 -8.76025,-21.55545 -19.25915,-26.73036 -14.11405,-6.95681 -29.86991,-4.85159 -41.03195,5.48249 l -4.28966,3.97147 -5.67539,-2.99144 c -10.80878,-5.69721 -22.82479,-12.99731 -22.5935,-13.72627 0.38258,-1.20579 13.03816,-8.02536 47.32968,-25.50404 17.87992,-9.11355 34.64217,-17.92029 37.24944,-19.57055 5.62725,-3.56171 7.10492,-5.90572 6.59197,-10.45668 -0.64532,-5.72526 -1.25149,-6.09398 -52.49083,-31.92913 l -39.061,-19.69477 14.17976,-8.09315 14.17977,-8.09316 4.1105,3.71979 c 14.46579,13.09079 35.24262,13.70418 48.70329,1.43785 9.66574,-8.8081 14.13386,-21.50337 11.68764,-33.20805 -1.60058,-7.65849 -4.74582,-13.53522 -10.14355,-18.95276 -5.13503,-5.15388 -9.3709,-7.58165 -16.1755,-9.27093 -12.64097,-3.13818 -24.54159,0.24131 -33.92046,9.63258 -8.39951,8.41063 -11.11846,16.24298 -10.30035,29.67171 l 0.41424,6.7994 -17.21116,9.93615 c -9.46613,5.46489 -17.51051,9.93616 -17.8764,9.93616 -0.36588,0 -7.52928,-3.39195 -15.91867,-7.53768 -20.97632,-10.36572 -25.10139,-11.52928 -30.0441,-8.47451 -4.6092,2.84864 -4.75872,3.62173 -5.01512,25.9323 l -0.23052,20.0573 -9.23039,5.28568 c -5.07672,2.90713 -9.51091,5.28569 -9.85376,5.28569 -0.34284,0 -2.89366,-2.2014 -5.66849,-4.89201 -10.85811,-10.5285 -24.8457,-13.59839 -38.11983,-8.36621 -7.74245,3.05178 -16.11106,11.02284 -19.776676,18.83717 -1.826432,3.89358 -2.179424,5.56873 -2.420799,11.48805 -0.330566,8.10661 0.594694,13.03208 3.55166,18.90667 5.510858,10.94838 14.752945,17.50563 27.151745,19.26409 11.02835,1.56411 20.69389,-1.80898 30.19903,-10.53888 l 5.43349,-4.99034 9.41556,5.48872 9.41556,5.48871 0.0376,16.77881 c 0.0207,9.22834 0.30892,18.18499 0.64051,19.90365 0.671,3.47791 4.17367,7.31974 7.41531,8.13335 3.23985,0.81315 9.99286,-1.6354 25.5421,-9.2612 l 15.09459,-7.40283 18.71969,10.74276 18.71969,10.74276 -0.4271,7.7349 c -0.32305,5.85049 -0.16395,8.74518 0.65305,11.88186 3.34033,12.82436 15.34005,24.75044 27.00491,26.83914 5.7227,1.02471 15.80819,0.3306 20.45422,-1.4077 z"
     id="path50"
     inkscape:connector-curvature="0"
     transform="scale(0.75000002)" />
  <g
     inkscape:groupmode="layer"
     id="layer2"
     inkscape:label="Layer 1"
     style="display:inline">
    <ellipse
       style="opacity:1;fill:#ffffff;fill-opacity:1;stroke:none;stroke-width:0.70590824;stroke-opacity:1"
       id="path3732"
       cx="174.49908"
       cy="179.43222"
       rx="137.064"
       ry="136.82845" />
  </g>
  <g
     inkscape:groupmode="layer"
     id="layer3"
     inkscape:label="Layer 2"
     style="display:inline">
    <path
       style="fill:#4081ec;stroke:none;stroke-width:0.52433765"
       d="m 162.27375,311.90519 c -15.835,-1.07581 -30.0292,-5.05224 -45.87884,-12.85272 -14.47948,-7.12614 -25.169874,-14.74506 -36.428064,-25.96189 -17.51931,-17.4549 -29.00279,-37.67196 -34.81713,-61.29676 -2.64363,-10.74158 -3.49102,-17.12529 -3.8281,-28.83857 -0.64898,-22.55188 3.85824,-43.20597 13.75241,-63.01963 15.52073,-31.081196 41.397854,-54.087083 74.691494,-66.404002 7.33548,-2.713747 17.49301,-5.44124 23.85736,-6.406159 10.05643,-1.524688 35.05545,-1.09431 45.71851,0.78708 22.7454,4.013199 46.90739,15.961333 64.65741,31.97318 23.36535,21.077281 39.617,52.181791 42.95168,82.206451 0.79947,7.19814 0.68162,27.7668 -0.20065,35.0202 -6.23855,51.28923 -44.44099,95.63179 -95.02837,110.30185 -15.8352,4.59213 -29.5818,5.84064 -49.44771,4.49097 z m 63.69894,-37.81432 c 7.55343,-1.92219 15.03138,-9.44937 17.6124,-17.72835 1.4406,-4.62093 1.43148,-11.21241 -0.0214,-15.42564 -2.81385,-8.16026 -10.43071,-15.20799 -18.4289,-17.0519 -1.26467,-0.29155 -4.77689,-0.53026 -7.80494,-0.53047 -4.52726,-3e-4 -6.02024,0.21138 -8.40207,1.19136 -3.22613,1.32735 -7.02572,3.80695 -10.12737,6.60912 l -2.05377,1.85545 -3.73443,-1.99942 c -6.05533,-3.24207 -18.15371,-10.4958 -18.15371,-10.8843 0,-0.89952 3.96173,-3.06909 37.73698,-20.66602 13.68989,-7.13246 25.77646,-13.52723 26.85905,-14.21063 2.69457,-1.70101 3.74264,-3.48411 3.74264,-6.36741 0,-4.36083 -0.0119,-4.36815 -41.59745,-25.55602 -13.98671,-7.12625 -25.66633,-13.18179 -25.95472,-13.45676 -0.34611,-0.33003 -0.257,-0.66514 0.26217,-0.9859 5.26942,-3.25569 19.82508,-11.47555 20.34606,-11.48981 0.37586,-0.0103 2.26348,1.23396 4.1947,2.76502 4.63146,3.67178 5.93994,4.45685 9.42882,5.65721 6.44143,2.21617 14.38512,1.77915 20.36974,-1.12068 5.77571,-2.79858 12.02253,-10.5904 13.80879,-17.22405 0.80461,-2.9881 0.79632,-9.09405 -0.0168,-12.38056 -2.22753,-9.003236 -9.90927,-16.931936 -18.53418,-19.130001 -6.98248,-1.779503 -13.05819,-1.144005 -18.88411,1.9752 -3.88463,2.079835 -10.26924,8.632415 -12.11701,12.435761 -1.44099,2.96606 -1.54417,3.62446 -1.80388,11.50991 l -0.27546,8.36388 -13.08006,7.49733 c -7.19404,4.12353 -13.23902,7.49733 -13.43332,7.49733 -0.19429,0 -5.39801,-2.45295 -11.56381,-5.45101 -11.7311,-5.70413 -16.67722,-7.65743 -19.39006,-7.65743 -1.90194,0 -4.20865,1.24339 -5.17381,2.78884 -0.82506,1.32114 -1.50696,9.5246 -1.62051,19.49551 -0.046,4.0374 -0.23496,8.73168 -0.41996,10.43175 l -0.33634,3.091 -6.81639,3.83781 c -3.74901,2.11077 -6.93437,3.84585 -7.07856,3.85572 -0.14419,0.01 -2.26776,-1.66185 -4.71904,-3.71493 -7.66363,-6.41875 -14.29132,-8.73183 -22.188544,-7.74385 -5.52397,0.69105 -9.78716,3.00309 -14.79625,8.02432 -4.53234,4.54335 -6.20657,7.34538 -7.05176,11.80206 -1.79229,9.45074 0.83075,18.33527 7.28794,24.68507 5.58088,5.48805 10.30573,7.31482 18.92113,7.31545 7.081094,5.4e-4 11.261054,-1.87099 19.015474,-8.51397 2.2041,-1.88818 3.32104,-2.51196 4.12266,-2.30232 0.60472,0.15813 3.90411,1.89533 7.33197,3.86043 l 6.23246,3.57294 0.007,2.62169 c 0.0222,7.82317 1.10793,25.62805 1.62396,26.63198 1.0275,1.99907 3.17895,3.97826 4.68375,4.30877 2.18166,0.47917 7.91536,-1.65846 19.75572,-7.36533 l 10.50941,-5.06537 14.08824,8.1183 14.08825,8.11829 0.27155,8.05705 c 0.26397,7.83209 0.3211,8.159 2.04651,11.70836 2.2758,4.68156 8.40957,10.96266 12.80256,13.11009 4.61337,2.25516 12.36472,2.77216 18.42821,1.22913 z"
       id="path3791"
       inkscape:connector-curvature="0" />
    <path
       style="fill:#4081ec;fill-opacity:1;stroke:none;stroke-width:0.52433765"
       d="m 212.59033,127.38274 c -4.72437,-1.56299 -7.99896,-4.34008 -10.30007,-8.7352 -1.06933,-2.04241 -1.23535,-3.09941 -1.23535,-7.86506 0,-5.11094 0.11041,-5.70486 1.54054,-8.2864 1.83996,-3.321328 4.50611,-5.838095 8.27196,-7.808473 2.34714,-1.22808 3.414,-1.451715 6.9663,-1.460302 3.53175,-0.0085 4.6608,0.21876 7.14386,1.43817 3.47986,1.708935 7.41666,5.721185 9.01396,9.186715 1.66598,3.61452 1.61578,10.8279 -0.10195,14.65224 -1.4493,3.2267 -4.92483,6.6135 -8.36086,8.14741 -3.04298,1.35845 -9.87497,1.74439 -12.93839,0.7309 z"
       id="path4602"
       inkscape:connector-curvature="0" />
    <path
       style="fill:#4081ec;fill-opacity:1;stroke:none;stroke-width:0.52433765"
       d="m 82.885824,196.93842 c -3.21876,-1.59194 -5.92282,-4.5616 -7.83761,-8.60743 -1.11869,-2.36374 -1.37722,-3.68309 -1.39088,-7.09811 -0.027,-6.75988 2.91406,-11.88658 8.87368,-15.46796 2.94993,-1.77274 3.23297,-1.83518 8.31859,-1.83518 4.442036,0 5.649266,0.1894 7.725376,1.21202 3.25475,1.60318 6.34302,4.66782 8.13925,8.07696 1.32835,2.52112 1.45989,3.26686 1.45989,8.27633 0,4.9621 -0.139,5.76899 -1.40825,8.17443 -1.65503,3.13658 -4.41523,5.70883 -7.74101,7.21391 -1.80834,0.81836 -3.71936,1.11996 -7.891706,1.24546 -5.04735,0.15182 -5.73373,0.0527 -8.24733,-1.19043 z"
       id="path4604"
       inkscape:connector-curvature="0" />
    <path
       style="fill:#4081ec;fill-opacity:1;stroke:none;stroke-width:0.52433765"
       d="m 211.46644,264.92483 c -3.70886,-1.46786 -7.17716,-4.67386 -8.94016,-8.26404 -1.31443,-2.67669 -1.47137,-3.55558 -1.47137,-8.23967 0,-6.13282 0.60777,-7.74842 4.52888,-12.03874 4.08772,-4.47262 9.49339,-6.22425 15.42811,-4.99926 5.79575,1.19631 10.67622,4.74379 12.83295,9.32793 1.59504,3.39024 1.98804,9.88177 0.83781,13.83845 -1.05586,3.63202 -4.35452,7.45768 -8.27689,9.59922 -2.40887,1.3152 -3.46985,1.55314 -7.52339,1.68729 -3.77536,0.12495 -5.25834,-0.0573 -7.41594,-0.91118 z"
       id="path4608"
       inkscape:connector-curvature="0" />
    <path
       style="fill:#4081ec;fill-opacity:1;stroke:none;stroke-width:0.52433765"
       d="m 120.31857,190.70376 -4.1947,-2.24695 v -7.24674 -7.24674 l 4.45687,-2.54118 c 2.45128,-1.39766 4.72585,-2.54798 5.05461,-2.55628 0.678,-0.0171 1.60365,20.47665 1.02839,22.76865 -0.46136,1.8382 -1.44542,1.69385 -6.34517,-0.93076 z"
       id="path4606"
       inkscape:connector-curvature="0" />
  </g>
  <g
     inkscape:groupmode="layer"
     id="layer4"
     inkscape:label="Layer 3"
     style="display:none">
    <path
       style="display:inline;fill:#4081ec;fill-opacity:1;stroke:none;stroke-width:0.52557629"
       d="M 154.64439,334.67405 C 129.52421,331.25885 106.27841,322.52039 86.614217,309.1005 78.270897,303.40657 71.991596,298.15408 63.636729,289.88041 50.252303,276.62607 40.933447,263.75802 32.864633,247.38835 25.721478,232.89665 21.110274,218.23791 18.59784,202.03518 17.193053,192.97572 16.667195,173.46883 17.5701,163.91084 22.010062,116.90999 47.963816,74.165833 88.194668,47.596763 108.58842,34.128426 129.47231,26.604252 156.41759,23.017007 c 16.21212,-2.158331 33.87142,-1.351853 52.14287,2.381304 15.8953,3.24767 38.1705,12.731285 53.48411,22.770756 12.41059,8.136268 30.79518,25.774316 40.68625,39.034116 10.35754,13.885137 20.44012,35.881147 25.35662,55.317627 4.81514,19.03577 5.39939,46.63273 1.40451,66.34069 -2.91044,14.35808 -6.89361,25.86286 -13.70177,39.57552 -22.87403,46.07176 -66.59506,77.8801 -117.89274,85.77043 -10.7724,1.65695 -32.75342,1.89408 -43.25305,0.4666 z m 43.1284,-21.65479 c 40.63667,-7.10477 75.21429,-31.31168 95.86296,-67.11128 11.74271,-20.35888 17.40902,-42.15649 17.39857,-66.93004 -0.008,-17.60265 -2.44761,-32.38686 -7.70495,-46.68172 -4.64491,-12.62965 -14.27855,-29.42644 -22.4802,-39.195486 C 276.04015,87.372683 262.60569,74.417902 257.39003,70.479232 232.63403,51.784416 201.34192,41.820205 170.42584,42.7876 115.61201,44.502781 67.489148,78.358982 47.152015,129.51527 c -17.847402,44.89358 -9.799097,96.81754 20.87132,134.65188 4.761529,5.87373 14.067976,15.19194 20.434743,20.46059 15.876572,13.13826 36.966172,23.19161 57.691562,27.50143 11.08335,2.30477 14.79201,2.60517 29.76021,2.41057 12.35151,-0.16058 15.22973,-0.36076 21.86294,-1.52048 z"
       id="path4610"
       inkscape:connector-curvature="0" />
  </g>
</svg>
